<?xml version="1.0" encoding="utf-8"?>
<!-- Generator: Adobe Illustrator 21.1.0, SVG Export Plug-In . SVG Version: 6.00 Build 0)  -->
<!DOCTYPE svg PUBLIC "-//W3C//DTD SVG 1.1//EN" "http://www.w3.org/Graphics/SVG/1.1/DTD/svg11.dtd">
<svg version="1.1" xmlns="http://www.w3.org/2000/svg" xmlns:xlink="http://www.w3.org/1999/xlink" x="0px" y="0px"
	 viewBox="0 0 80 80" style="enable-background:new 0 0 80 80;" xml:space="preserve">
<style type="text/css">
	.st0{display:none;}
	.st1{display:inline;filter:url(#Adobe_OpacityMaskFilter);}
	.st2{filter:url(#Adobe_OpacityMaskFilter_1_);}
	.st3{mask:url(#SVGID_1_);stroke:#000000;stroke-width:4;stroke-miterlimit:10;}
	.st4{display:inline;}
	.st5{fill:#490005;}
	.st6{fill:#D80000;}
	.st7{fill:#F23F00;}
	.st8{display:inline;filter:url(#Adobe_OpacityMaskFilter_2_);}
	.st9{display:inline;mask:url(#SVGID_2_);fill:#E8DCC1;}
	.st10{fill:#418AF2;}
	.st11{fill:#FFFFFF;}
	.st12{display:inline;fill:#36AEEA;}
	.st13{display:inline;fill:#593810;}
	.st14{fill:#FF9C00;}
	.st15{fill:#39CCFF;}
	.st16{display:inline;fill:#2B374C;}
	.st17{display:inline;fill:#F4BF2A;}
	.st18{display:inline;fill:#FFBA0D;}
	.st19{display:inline;fill:#FFFFFF;}
	.st20{display:inline;filter:url(#Adobe_OpacityMaskFilter_3_);}
	.st21{stroke:#000000;stroke-width:4;stroke-miterlimit:10;}
	.st22{display:inline;mask:url(#SVGID_3_);}
	.st23{fill:#3390FF;}
	.st24{display:inline;fill:#CCE1FF;}
	.st25{display:inline;fill-rule:evenodd;clip-rule:evenodd;fill:#FFF7DE;}
	.st26{display:inline;fill:#DD7928;}
	.st27{display:inline;fill:#1E394F;}
	.st28{display:inline;fill:#F3BE25;}
	.st29{fill:#79ABCB;}
	.st30{clip-path:url(#SVGID_5_);fill:#00AFFF;}
	.st31{fill:#FCFCFC;}
</style>
<g id="game_x5F_icons">
	<g class="st0">
		<defs>
			<filter id="Adobe_OpacityMaskFilter" filterUnits="userSpaceOnUse" x="1.5" y="0" width="77" height="80">
				<feFlood  style="flood-color:white;flood-opacity:1" result="back"/>
				<feBlend  in="SourceGraphic" in2="back" mode="normal"/>
			</filter>
		</defs>
		<mask maskUnits="userSpaceOnUse" x="1.5" y="0" width="77" height="80" id="SVGID_1_" class="st4">
			<g style="filter:url(#Adobe_OpacityMaskFilter);">
				<defs>
					<filter id="Adobe_OpacityMaskFilter_1_" filterUnits="userSpaceOnUse" x="11.9" y="16.7" width="55.7" height="44.9">
						<feFlood  style="flood-color:white;flood-opacity:1" result="back"/>
						<feBlend  in="SourceGraphic" in2="back" mode="normal"/>
					</filter>
				</defs>
				<mask maskUnits="userSpaceOnUse" x="11.9" y="16.7" width="55.7" height="44.9" id="SVGID_1_">
					<g class="st2">
					</g>
				</mask>
				<path class="st3" d="M62.7,29.9c-2.2-0.9-4.2-2.8-6.8-3.5c2.5,3.5,5.4,7.4,5,13.9c-0.3,5-2.7,8.5-5.3,11.3
					c-2.8,2.9-6.4,5.1-10.3,6.1c-2.3,0.8-4.6,1.2-7,1.3c-7.9,0-16.1-0.5-23.7,0.4c-0.1-0.7-0.2-1.4-0.4-2.1c3.1-0.8,7.3-1.8,7.7-5.4
					c0.2-2,0.2-24.9-0.2-26.6c-0.5-2.3-5-3-7.4-3.5c0-0.8,0.2-1.3,0.2-2.1c5.2-0.7,10.4-0.7,16-1C44.9,18.1,57.3,21,62.7,29.9z
					 M32.5,24.2c-0.7,0.1-0.5,2.4-0.5,3.1c0.1,5.8-0.1,12.6-0.1,18.4c0,1.8-0.5,5.7,0.6,6.6c1.1,0.9,5.3,0.6,7,0.4
					c8.8-0.6,12.7-10.3,9.7-18.8c-1.9-5.5-6.2-9.3-13.3-9.8C35,24,32.7,24.2,32.5,24.2z"/>
				<path d="M61.6,33.7c0,0,1.4,0,2.4-1.2c0,0,9.6,5.2,14.3,6.3s4.6-10,4.6-10l-19.7-6.6l-3.6,2.1l-0.8,4.9L61.6,33.7z"/>
			</g>
		</mask>
		<g class="st4">
			<path class="st5" d="M78.5,38.8c0,0-9-1.9-12.8-8.5c0,0-1.8,3.1-3.7,3.3c0,0,0.5-3.6,2.8-5.2l-2.8-2.7h-6.5c0,0,1.7-5,4-5.4
				c0,0-3.9-1.8-6.5,0.4c0,0-8.4,1.2-1.3-5.4c0,0-10.2-4-11.9-8.4c-1.7,4.4-11.9,8.4-11.9,8.4c7.1,6.6-1.3,5.4-1.3,5.4
				c-2.6-2.2-6.5-0.4-6.5-0.4c2.3,0.4,4,5.4,4,5.4h-6.5l-2.8,2.7c2.3,1.7,2.8,5.2,2.8,5.2c-1.9-0.3-3.7-3.3-3.7-3.3
				c-3.7,6.6-12.8,8.5-12.8,8.5v0c0,0,9,1.9,12.8,8.5c0,0,1.8-3.1,3.7-3.3c0,0-0.5,3.6-2.8,5.2l2.8,2.7h6.5c0,0-1.7,5-4,5.4
				c0,0,3.9,1.8,6.5-0.4c0,0,8.4-1.2,1.3,5.4c0,0,10.2,4,11.9,8.4c1.7-4.4,11.9-8.4,11.9-8.4c-7.1-6.6,1.3-5.4,1.3-5.4
				c2.6,2.2,6.5,0.4,6.5,0.4c-2.3-0.4-4-5.4-4-5.4h6.5l2.8-2.7c-2.3-1.7-2.8-5.2-2.8-5.2c1.9,0.3,3.7,3.3,3.7,3.3
				C69.4,40.8,78.5,38.9,78.5,38.8L78.5,38.8z"/>
			<g>
				<path class="st6" d="M40,0.4c1,6.6,1.6,13.1,2,19.7c0.4,6.6,0.5,13.1,0.5,19.7c0,6.6-0.2,13.1-0.5,19.7
					c-0.4,6.6-0.9,13.1-2,19.7c-1-6.6-1.6-13.1-2-19.7c-0.4-6.6-0.5-13.1-0.5-19.7c0-6.6,0.2-13.1,0.5-19.7C38.5,13.5,39,6.9,40,0.4
					z"/>
			</g>
			<g>
				<path class="st7" d="M40,0c1,6.7,1.6,13.3,2,20c0.4,6.7,0.5,13.3,0.5,20c0,6.7-0.2,13.3-0.5,20c-0.4,6.7-0.9,13.3-2,20
					c-1-6.7-1.6-13.3-2-20c-0.4-6.7-0.5-13.3-0.5-20c0-6.7,0.2-13.3,0.5-20C38.5,13.3,39,6.7,40,0z"/>
			</g>
			<g>
				<path class="st7" d="M26.3,8.1c1,5.3,1.6,10.6,2,15.8c0.4,5.3,0.5,10.6,0.5,15.8c0,5.3-0.2,10.6-0.5,15.8
					c-0.4,5.3-0.9,10.6-2,15.8c-1-5.3-1.6-10.6-2-15.8C24,50.3,23.8,45,23.8,39.8c0-5.3,0.2-10.6,0.5-15.8
					C24.7,18.6,25.3,13.4,26.3,8.1z"/>
			</g>
			<g>
				<path class="st7" d="M53,8.1c1,5.3,1.6,10.6,2,15.8c0.4,5.3,0.5,10.6,0.5,15.8c0,5.3-0.2,10.6-0.5,15.8
					c-0.4,5.3-0.9,10.6-2,15.8c-1-5.3-1.6-10.6-2-15.8c-0.4-5.3-0.5-10.6-0.5-15.8c0-5.3,0.2-10.6,0.5-15.8
					C51.4,18.6,52,13.4,53,8.1z"/>
			</g>
		</g>
		<defs>
			<filter id="Adobe_OpacityMaskFilter_2_" filterUnits="userSpaceOnUse" x="14.2" y="19.4" width="48.5" height="40.7">
				<feFlood  style="flood-color:white;flood-opacity:1" result="back"/>
				<feBlend  in="SourceGraphic" in2="back" mode="normal"/>
			</filter>
		</defs>
		<mask maskUnits="userSpaceOnUse" x="14.2" y="19.4" width="48.5" height="40.7" id="SVGID_2_" class="st4">
			<g style="filter:url(#Adobe_OpacityMaskFilter_2_);">
			</g>
		</mask>
		<path class="st9" d="M62.7,30.7c-2-1.4-4.2-2.8-6.8-3.5c2.5,3.5,5.4,7.4,5,13.9c-0.3,5-2.7,8.5-5.3,11.3
			c-2.8,2.9-6.4,5.1-10.3,6.1c-2.3,0.8-4.6,1.2-7,1.3c-7.9,0-16.1-0.5-23.7,0.4c-0.1-0.7-0.2-1.4-0.4-2.1c3.1-0.8,7.3-1.8,7.7-5.4
			c0.2-2,0.2-24.9-0.2-26.6c-0.5-2.3-5-3-7.4-3.5c0-0.8,0.2-1.3,0.2-2.1c5.2-0.7,10.4-0.7,16-1C44.9,18.9,57.3,21.8,62.7,30.7z
			 M32.5,25c-0.7,0.1-0.5,2.4-0.5,3.1c0.1,5.8-0.1,12.6-0.1,18.4c0,1.8-0.5,5.7,0.6,6.6c1.1,0.9,5.3,0.6,7,0.4
			c8.8-0.6,12.7-10.3,9.7-18.8c-1.9-5.5-6.2-9.3-13.3-9.8C35,24.8,32.7,25,32.5,25z"/>
	</g>
	<g class="st0">
		<g class="st4">
			<polygon class="st10" points="63.4,53.5 40,67.1 16.6,53.5 16.6,26.5 40,12.9 63.4,26.5 			"/>
			<polygon class="st11" points="40,10.4 13.8,25.1 13.8,54.6 40,69.4 66.2,54.6 66.2,25.1 			"/>
		</g>
		<path class="st12" d="M18.7,37.6c1.7-14,13.9-17.8,13.9-17.8c-16.3,17.4,3.2,29.8,3.2,29.8l-13.2,2.9C22.7,52.5,18,46.9,18.7,37.6
			z"/>
		<path class="st12" d="M48.4,59.8c-14,5.1-22.2-3.8-22.2-3.8c22.9,5.8,24.5-17.4,24.5-17.4l8.8,10.1C59.5,48.7,57,55.9,48.4,59.8z"
			/>
		<path class="st12" d="M60.9,43.9c-7-22.9-26.7-12-26.7-12l4.2-13.3c0,0,8.4-1.1,16,5.4C63.7,32.1,60.9,43.9,60.9,43.9z"/>
	</g>
	<g class="st0">
		<circle class="st13" cx="40.1" cy="40" r="20.8"/>
		<g class="st4">
			<path class="st14" d="M61.7,48.4L75.8,40l-14.1-8.4c-0.7-1.8-1.6-3.4-2.7-5l3.2-8.9l-8.8,3.2c-1.5-1.1-3.2-2-5-2.7L40,4.2
				l-8.4,14.1c-1.8,0.7-3.4,1.6-5,2.7l-8.8-3.2l3.2,8.8c-1.1,1.5-2,3.2-2.7,5L4.2,40l14.1,8.4c0.7,1.8,1.6,3.4,2.7,5l-3.2,8.9
				l8.8-3.2c1.5,1.1,3.2,2,5,2.7L40,75.8l8.4-14.1c1.8-0.7,3.4-1.6,5-2.7l8.9,3.2l-3.2-8.8C60.2,51.9,61.1,50.2,61.7,48.4z M40,59.3
				c-10.6,0-19.3-8.6-19.3-19.3S29.4,20.7,40,20.7S59.3,29.4,59.3,40l0,0C59.3,50.6,50.6,59.3,40,59.3L40,59.3L40,59.3z"/>
			<path class="st15" d="M52.9,39.5c0.1-0.9-0.7-1.8-0.8-2.8c0-0.5-0.2-1-0.4-1.5c-0.2-0.5-0.2-1-0.3-1.4h-0.1
				c0.6-1.2-1.1-2.6-1.9-3.5c-1-1-1.5-2.3-3-2.8c-0.7-0.3-1.4-0.7-2.2-1c-0.7-0.3-1.5-0.5-2.1-0.7c-0.7-0.3-1.2-0.9-2-0.8
				c-0.8,0.1-1.2,0.6-2.1,0.4c-1.8-0.6-3.1,0.4-4.5,1.4c-0.7,0.5-1.4,0.9-2,1.4c-0.2,0.2-0.4,0.5-0.6,0.8c-0.2,0.3-0.6,0.5-0.8,0.9
				c-0.4,0.6-1,1-1.6,1.4c-0.3,0.2-0.5,0.6-0.9,0.8c-0.5,0.3-0.6,0.2-0.6,0.8c0,0.8,0.4,1.4,0.4,2.1c0,0.4,0,0.8,0,1.2
				c0.1,0.4,0.2,0.7,0.3,1.1c0.2,0.7,0,1.5,0.3,2.1c0.4,0.6,0.8,1.3,1.3,1.8c0.5,0.6,1,1.3,1.5,2c0.3,0.4,1.4,1,1.4,1.6
				c0.8,0.2,1,1.1,1.7,1.1c0.4-0.1,0.8-0.1,1.1,0c0.4,0.1,0.7,0.2,1.1,0.3c0.7,0,1.2-0.6,1.9-0.8s1.5,0,2.2-0.3
				c1.3-0.8,2.1-2.2,2.2-3.7c0-0.8-0.2-1.6-0.7-2.2c-0.4-0.7-0.1-1.5-0.8-1.9c-0.7-0.3-1.5-0.6-2.4-0.6c-0.8-0.3-1.6-0.2-2.4,0.1
				c-1.3,0.9,1.6,3,0.1,3.7c-1.7,0.7-2.6-1.2-3-2.5c-0.2-0.8-0.2-1.7,0-2.5c0-0.4,0.1-0.7,0.2-1.1c0.2-0.3,0.6-0.5,0.9-0.6
				c0.6-0.4,1.1-1,1.7-1.4c0.6-0.4,1.4-0.7,2.1-0.9c0.9-0.2,1.8-0.2,2.7-0.2c0.4,0,0.8,0.1,1.2,0.1c0.4,0,0.7-0.2,1.1-0.2
				c0.6,0,0.4,0.2,0.4,0.7c0,0.3,0.2,0.6,0.4,0.9c0.5,0.6,0.9,1.2,1.4,1.8c1,1.2,0.8,3.1,0.7,4.6c-0.1,0.8,0,1.6,0.2,2.4
				c0.3,0.9-0.4,0.9-1,1.4c-0.4,0.6-0.8,1.2-1.1,1.8c-0.5,0.6-1,1.1-1.6,1.5c-0.5,0.5-1.1,0.9-1.6,1.3c-0.7,0.4-1.4,0.8-2.1,1.1
				c-0.8,0.3-1.7,0.5-2.5,0.7c-0.4,0.1-0.8,0.2-1.2,0.4c-0.3,0.2-0.5,0.6-0.9,0.8c-1,0.6-2.1,0.5-3.2,1c-0.6,0.3-2.6,0.4-2.7,1.1
				h-0.1c0.3,0.6,0.9,1.1,1.6,1.2c0.7,0.1,1.4,0.3,2,0.5c0.7,0.3,1.3,0.4,2,0.5c0.7,0,1.3,0.4,2,0.5c0.8,0.1,1.4-0.5,2.1-0.6
				c0.8-0.1,1.6-0.1,2.4-0.2c0.8-0.1,1.5-0.3,2.3-0.5c0.7-0.3,1.4-0.3,2.1-0.6c0.7-0.3,1.3-0.6,1.9-1c0.6-0.4,0.7-1.1,1.3-1.5
				c0.6-0.4,1.1-0.8,1.6-1.3c0.4-0.6,0.7-1.3,0.8-2c0.3-0.6,0.7-1.2,1.1-1.7c0.3-0.7,0.6-1.4,0.7-2.1c0.3-0.7,0.3-1.4,0.3-2.2
				c-0.1-0.4-0.5-0.6-0.3-1.1C52.7,40.1,52.8,39.8,52.9,39.5z"/>
		</g>
	</g>
	<g class="st0">
		<circle class="st16" cx="40" cy="40" r="24.2"/>
		<path class="st17" d="M70.3,40c0-6.1-1.9-12.1-5.3-17.2v-7.4c0-0.2-0.2-0.4-0.4-0.4h-7.4c-10.3-7.1-23.9-7.1-34.2,0h-7.4
			c-0.1,0-0.2,0-0.3,0.1c-0.1,0.1-0.1,0.2-0.1,0.3v7.3c-7.2,10.4-7.2,24.1,0,34.5v7.3c0,0.2,0.2,0.4,0.4,0.4h7.4
			c10.4,7.1,24,7,34.4-0.1h7.3c0.2,0,0.4-0.2,0.4-0.5v0v-7.3C68.5,52.1,70.3,46.1,70.3,40z M13.8,40c0-14.5,11.7-26.2,26.2-26.2
			S66.2,25.5,66.2,40S54.5,66.2,40,66.2l0,0l0,0C25.5,66.2,13.8,54.5,13.8,40z"/>
		<path class="st17" d="M22.6,25.8h9.9c-0.2,1.1-0.3,2.2-0.3,3.4c0.4,4.4,3.3,16.6,3.3,16.6l4.7-19l4.8,18.6c0,0,2.9-16.4,2.9-17.5
			c-0.1-0.8-0.5-1.6-1.2-2.1h10.5c-1.4,1.3-2.4,2.9-3,4.8c-0.9,3.6-4.1,21.8-4.1,22.9c0.1,1.2,0.5,2.3,1.2,3.3h-9.8
			c0.2-0.9,0.3-1.8,0.3-2.7c0-1.7-1.5-9.6-1.5-9.6s-2,8.2-2,9.7c0,0.9,0.2,1.8,0.6,2.6H29c0,0,1.9-1.4,1.9-2.7
			c-0.2-3.7-5.4-23-5.8-24.5C24.8,28.1,23.9,26.7,22.6,25.8z"/>
	</g>
	<g class="st0">
		<path class="st18" d="M40.3,9.2h-0.6c0,0-0.1,0-0.1,0c-6.4,0-12.7,2.1-17.9,6l6,6.7c3.3-2.2,6.8-3.7,12-3.8
			c5.5,0,9.2,1.6,12.6,3.8l6-6.7C53.2,11.3,46.8,9.1,40.3,9.2z"/>
		<path class="st19" d="M61.3,17.6l-5.9,6.6l0.2,0.2c7,7,8.5,17.9,3.6,26.5L47.4,39.6l-5.6-13v19.8l11.5,11.1l0,0
			c-0.6,0.4-1.2,0.9-1.8,1.2L51.1,59c-3.3,1.9-7,2.9-10.8,2.9c0,0,0,0,0,0h-0.6c-3.8,0-7.5-1-10.8-2.9l-0.4-0.2
			c-0.6-0.4-1.2-0.8-1.8-1.2L38,46.4V26.6l-5.6,13L20.8,50.9c-4.9-8.6-3.4-19.5,3.5-26.5l0.3-0.3l-5.9-6.6l-0.7,0.7
			c-11.9,12-11.8,31.6,0,43.5l0.4,0.4c2.8,2.7,5.9,4.8,9.5,6.3l0.8,0.3L29,69l0.8,0.3c1,0.4,2.1,0.7,3.2,0.9l2,0.4l2.1,0.3l0.4,0
			l0.8,0H40l0.7-0.1l1.1,0l0.7,0h0.5l2.1-0.3l2-0.4c1.1-0.2,2.2-0.6,3.2-0.9l0.6-0.2l1.1-0.5l0.1-0.1c3.4-1.4,6.6-3.5,9.3-6.1
			l1.2-1.2C74,48.8,73.5,29.3,61.3,17.6z"/>
	</g>
	<g class="st0">
		<defs>
			<filter id="Adobe_OpacityMaskFilter_3_" filterUnits="userSpaceOnUse" x="14.8" y="10.2" width="50.4" height="59.5">
				<feFlood  style="flood-color:white;flood-opacity:1" result="back"/>
				<feBlend  in="SourceGraphic" in2="back" mode="normal"/>
			</filter>
		</defs>
		<mask maskUnits="userSpaceOnUse" x="14.8" y="10.2" width="50.4" height="59.5" id="SVGID_3_" class="st4">
			<g style="filter:url(#Adobe_OpacityMaskFilter_3_);">
				<path class="st21" d="M12.3,28.4h18.1l2.4,2.2c0.1,0.1,0.1,0.1,0.2,0.1l0,0c0.1,0,0.2,0,0.2-0.1l6.4-7c0.1-0.1,0.1-0.2,0.1-0.4
					c-0.1-0.1-0.2-0.2-0.3-0.2H15.9c-1-0.1-1.9,0.2-2.7,0.7c-0.7,0.6-1.3,1.6-1.3,3.4V28C11.9,28.1,12.1,28.3,12.3,28.4
					C12.3,28.3,12.3,28.3,12.3,28.4L12.3,28.4L12.3,28.4z M72.4,23.3H46.6l-0.2,0.1l-4.7,4.4c-0.1,0.1-0.1,0.4,0,0.5
					c0.1,0.1,0.2,0.1,0.2,0.1h20.7l1.1,1.5c0.1,0.1,0.3,0.2,0.5,0.1l8.4-6c0.1-0.1,0.2-0.3,0-0.5C72.6,23.3,72.5,23.3,72.4,23.3
					L72.4,23.3L72.4,23.3z M63.8,50.8c-0.7,0.1-1.4,0.2-2.1,0.2c-6.1-0.2-11.1-4.9-11.6-11C50,39.2,50,38.4,50,37.6
					c0-2,0.1-4.1,0.5-6.1c0-0.1,0-0.2-0.1-0.3c-0.1-0.1-0.2-0.1-0.3-0.1h-9.2c-0.1,0-0.3,0.1-0.3,0.2c-0.8,2.3-1.2,4.8-1.2,7.3
					c0,2,0.3,3,1,5.4c1.8,5.5,8.4,10.8,13.7,10.8c8,0,10-2.8,10.1-3.7C64.2,50.9,64.1,50.8,63.8,50.8L63.8,50.8L63.8,50.8L63.8,50.8
					z M25,31.4l-0.3-0.1H14.3c-0.2,0-0.3,0.2-0.3,0.3c0,0.1,0,0.2,0.1,0.2c0,0,14.1,16.3,14.4,16.7c0,0,0,0.1,0.1,0.1
					c0,0-0.1,0.1-0.1,0.1h-8.3c-1.2,0-2.4-0.4-3.4-1.1c-0.4-0.3-0.7-0.7-1-1.1c-0.1-0.1-0.1-0.1-0.2-0.1c-0.1,0-0.2,0-0.3,0.1
					l-7.8,7.2c-0.1,0.1-0.1,0.4,0,0.5c0.1,0.1,0.1,0.1,0.2,0.1h29.1c1.7,0,2.8-1.8,2.9-3.5c0-0.7-0.2-1.4-0.6-1.9
					C37.8,47.6,25,31.4,25,31.4z"/>
			</g>
		</mask>
		<g class="st22">
			<path class="st23" d="M37.5,14.5l-10.9-4.3h-0.2l-11.3,2.1c-0.2,0-0.3,0.2-0.3,0.4c0,0.1,0.1,0.3,0.2,0.3
				c1.3,0.6,2.6,1.2,3.9,1.9c2.1,1.1,5.9,3.5,6.7,4.9c0,0,0,0,0,0c0.3,0.5,0.4,1.1,0.4,1.7l0.1,36.2c0,0,0.1,4.6,10.8,11.9
				c0.2,0.1,0.8,0.2,0.9,0c0,0,0,0,0-0.1V14.8C37.7,14.7,37.7,14.5,37.5,14.5z"/>
			<path class="st23" d="M42.5,14.5l10.9-4.3h0.2l11.3,2.1c0.2,0,0.3,0.2,0.3,0.4c0,0.1-0.1,0.3-0.2,0.3c-1.3,0.6-2.6,1.2-3.9,1.9
				c-2.1,1.1-5.9,3.5-6.7,4.9c0,0,0,0,0,0C54.1,20.4,54,21,54,21.6l-0.1,36.2c0,0-0.1,4.6-10.8,11.9c-0.2,0.1-0.8,0.2-0.9,0
				c0,0,0,0,0-0.1V14.8C42.3,14.7,42.3,14.5,42.5,14.5z"/>
		</g>
		<path class="st24" d="M12.3,28.4h18.1l2.4,2.2c0.1,0.1,0.1,0.1,0.2,0.1l0,0c0.1,0,0.2,0,0.2-0.1l6.4-7c0.1-0.1,0.1-0.2,0.1-0.4
			c-0.1-0.1-0.2-0.2-0.3-0.2H15.9c-1-0.1-1.9,0.2-2.7,0.7c-0.7,0.6-1.3,1.6-1.3,3.4V28C11.9,28.1,12.1,28.3,12.3,28.4
			C12.3,28.3,12.3,28.3,12.3,28.4L12.3,28.4L12.3,28.4z M72.4,23.3H46.6l-0.2,0.1l-4.7,4.4c-0.1,0.1-0.1,0.4,0,0.5
			c0.1,0.1,0.2,0.1,0.2,0.1h20.7l1.1,1.5c0.1,0.1,0.3,0.2,0.5,0.1l8.4-6c0.1-0.1,0.2-0.3,0-0.5C72.6,23.3,72.5,23.3,72.4,23.3
			L72.4,23.3L72.4,23.3z M63.8,50.8c-0.7,0.1-1.4,0.2-2.1,0.2c-6.1-0.2-11.1-4.9-11.6-11C50,39.2,50,38.4,50,37.6
			c0-2,0.1-4.1,0.5-6.1c0-0.1,0-0.2-0.1-0.3c-0.1-0.1-0.2-0.1-0.3-0.1h-9.2c-0.1,0-0.3,0.1-0.3,0.2c-0.8,2.3-1.2,4.8-1.2,7.3
			c0,2,0.3,3,1,5.4c1.8,5.5,8.4,10.8,13.7,10.8c8,0,10-2.8,10.1-3.7C64.2,50.9,64.1,50.8,63.8,50.8L63.8,50.8L63.8,50.8L63.8,50.8z
			 M25,31.4l-0.3-0.1H14.3c-0.2,0-0.3,0.2-0.3,0.3c0,0.1,0,0.2,0.1,0.2c0,0,14.1,16.3,14.4,16.7c0,0,0,0.1,0.1,0.1
			c0,0-0.1,0.1-0.1,0.1h-8.3c-1.2,0-2.4-0.4-3.4-1.1c-0.4-0.3-0.7-0.7-1-1.1c-0.1-0.1-0.1-0.1-0.2-0.1c-0.1,0-0.2,0-0.3,0.1
			l-7.8,7.2c-0.1,0.1-0.1,0.4,0,0.5c0.1,0.1,0.1,0.1,0.2,0.1h29.1c1.7,0,2.8-1.8,2.9-3.5c0-0.7-0.2-1.4-0.6-1.9
			C37.8,47.6,25,31.4,25,31.4z"/>
	</g>
	<g class="st0">
		<path class="st24" d="M12.3,28.8h18.1l2.4,2.2c0.1,0.1,0.1,0.1,0.2,0.1l0,0c0.1,0,0.2,0,0.2-0.1l6.4-7c0.1-0.1,0.1-0.2,0.1-0.4
			c-0.1-0.1-0.2-0.2-0.3-0.2H15.9c-1-0.1-1.9,0.2-2.7,0.7c-0.7,0.6-1.3,1.6-1.3,3.4v0.8C11.9,28.6,12.1,28.8,12.3,28.8
			C12.3,28.8,12.3,28.8,12.3,28.8L12.3,28.8L12.3,28.8z M72.4,23.7H46.6l-0.2,0.1l-4.7,4.4c-0.1,0.1-0.1,0.4,0,0.5
			c0.1,0.1,0.2,0.1,0.2,0.1h20.7l1.1,1.5c0.1,0.1,0.3,0.2,0.5,0.1l8.4-6c0.1-0.1,0.2-0.3,0-0.5C72.6,23.8,72.5,23.7,72.4,23.7
			L72.4,23.7L72.4,23.7z M63.8,51.2c-0.7,0.1-1.4,0.2-2.1,0.2c-6.1-0.2-11.1-4.9-11.6-11C50,39.6,50,38.9,50,38.1
			c0-2,0.1-4.1,0.5-6.1c0-0.1,0-0.2-0.1-0.3c-0.1-0.1-0.2-0.1-0.3-0.1h-9.2c-0.1,0-0.3,0.1-0.3,0.2c-0.8,2.3-1.2,4.8-1.2,7.3
			c0,2,0.3,3,1,5.4c1.8,5.5,8.4,10.8,13.7,10.8c8,0,10-2.8,10.1-3.7C64.2,51.4,64.1,51.2,63.8,51.2L63.8,51.2L63.8,51.2L63.8,51.2z
			 M25,31.9l-0.3-0.1H14.3c-0.2,0-0.3,0.2-0.3,0.3c0,0.1,0,0.2,0.1,0.2c0,0,14.1,16.3,14.4,16.7c0,0,0,0.1,0.1,0.1
			c0,0-0.1,0.1-0.1,0.1h-8.3c-1.2,0-2.4-0.4-3.4-1.1c-0.4-0.3-0.7-0.7-1-1.1C15.6,47,15.6,47,15.5,47c-0.1,0-0.2,0-0.3,0.1l-7.8,7.2
			c-0.1,0.1-0.1,0.4,0,0.5c0.1,0.1,0.1,0.1,0.2,0.1h29.1c1.7,0,2.8-1.8,2.9-3.5c0-0.7-0.2-1.4-0.6-1.9C37.8,48,25,31.9,25,31.9z"/>
	</g>
	<g class="st0">
		<path class="st25" d="M34,30.8c-0.5,0.3-0.8,0.8-0.8,1.9v20.5c0,0.8,0.2,1.5,0.6,2c0.3,0.4,0.8,0.7,1.6,0.7h5.5c2.6,0,5-1.2,7-3.6
			c2.1-2.6,2.6-7,2.6-9.8c0-3.3-0.4-6.2-2.7-8.8c-2-2.3-4.3-3.1-7.6-3.2h-4C35.2,30.5,34.5,30.5,34,30.8L34,30.8z M22.6,25.6h18.8
			c6.7,0,11,2.5,13.7,5.9c2.6,3.3,3.6,7.4,3.6,10.7c0,5.7-1.9,10.4-5,13.6c-3.2,3.2-7.7,4.9-12.9,4.9H30.3c-1.5,0-2.8-0.1-5.2-0.1
			c-1.2,0.1-1.7,0.1-2.4,0.5c0,0-2.2,1.5-2.2,1.3c0.3-1,0.9-2.3,1.6-3c1-1,1.3-1.2,2-1.8c1.2-1.1,1.3-2,1.3-4.5V30.6
			c0-0.8-0.1-1.3-0.2-1.6c-0.4-1.1-0.4-2-3.1-3.2c-0.3-0.1-0.8-0.3-0.8-0.3C21.9,25.5,22.3,25.6,22.6,25.6z"/>
		<path class="st26" d="M37.9,68c-1.2-0.2-6.9-0.7-8.4-5.2c-0.4,0-0.8,0-1.3,0c-0.9,0-1.9,0-3.2,0c-1,0-1.1,0.1-1.3,0.2
			c-0.2,0.1-0.6,0.4-1,0.7c-0.3,0.2-0.6,0.4-0.8,0.5c-0.2,0.1-0.8,0.5-1.5,0.5c-0.4,0-0.8-0.1-1.2-0.4c-0.7-0.5-1-1.4-0.8-2.2
			c0.4-1.4,1.2-2.9,2.1-3.9c0,0,0,0,0,0c0.7-0.7,1.1-1.1,1.5-1.5c0.1-0.1,0.3-0.3,0.5-0.4c0,0,0,0,0,0c0.5-0.4,0.6-0.5,0.6-3V30.6
			c0-0.5,0-0.8-0.1-1c0-0.1-0.1-0.3-0.1-0.4c-0.1-0.4-0.2-0.5-0.3-0.7c-0.1-0.2-0.5-0.5-1.6-0.9c-0.1,0-0.3-0.1-0.5-0.2
			c-1-0.3-1.6-1.2-1.5-2.3c0.1-1,1-1.8,2-1.8c0.3,0,0.6,0,0.9,0c0.2,0,0.3,0,0.4,0h7.1c0.5-1.5,1.3-3.2,2.8-4.1c3.1-1.7,3-2.6,3-2.6
			S14.7,21,4.3,9.2C7.8,14.6,15,21.4,15,26.6s0,33.8,0,33.8s0.3,7-8.7,7.5c-0.6,0.4-0.3,1-0.1,1c0.6,0,31.6,0,31.6,0
			S38.5,68.6,37.9,68z"/>
		<path class="st26" d="M73.7,67.9c-9-0.5-8.7-7.5-8.7-7.5s0-28.5,0-33.8s7.2-12,10.8-17.5C65.3,21,44.6,16.9,44.6,16.9
			s-0.1,0.9,3,2.6c2.2,1.2,2.9,4.1,3.2,5.8c3,1.3,5.1,3.2,6.4,4.9c0,0,0,0,0,0c2.6,3.3,4.1,7.7,4.1,12c0,6.1-1.9,11.3-5.6,15.1
			c0,0,0,0,0,0c-1.4,1.4-3,2.5-4.8,3.4c-0.2,6.5-7.4,7.1-8.8,7.3c-0.6,0.6,0,0.8,0,0.8s31.1,0,31.6,0C74,68.8,74.3,68.3,73.7,67.9z"
			/>
	</g>
	<g class="st0">
		<path class="st27" d="M73.5,25.6c0.7-1.1,0-3,0.1-4.3c0.2-1.3,2.4-4.5,2.2-5.8c-1.1,0.1-2.9,0.3-4.8,0c-2-0.2-7,0.7-8.8,1.5
			c-1.8,0.8,0.4-0.7-1-1.3c-1.4-0.5-7.1,1.8-7.1,1.8l-5.5-0.4L40,18l0,0v0l0,0l0,0v0l0,0l-8.7-0.8l-5.5,0.4c0,0-5.7-2.4-7.1-1.8
			c-1.4,0.5,0.9,2-1,1.3c-1.8-0.8-6.8-1.7-8.8-1.5c-2,0.2-3.7,0.1-4.8,0c-0.2,1.2,2.1,4.5,2.2,5.8c0.2,1.3-0.6,3.2,0.1,4.3
			c0.7,1.1-0.5,1.7-0.5,3c0,1.3,2.7,3.2,2.4,4.3c-0.3,1-0.4,3.3,0,5.2c0.4,1.9,1.4,5.3,1.1,6.9c-0.3,1.5-1.3,4.6-1.1,5.3
			c0.2,0.7,0.3,1.3,0.3,2.3c0,0.9,1,3.5,0.8,4.7c-0.2,1.2,0.3,3.2,0.1,3.8c-0.2,0.6-1.4,3.4-0.3,3.1c1-0.3,7.4-0.5,9.5-0.5
			c1,0,5.5,0.5,10.5,0.5c2.8,0,2.4-0.1,4.9-0.4c0.9,0.4,5,0.4,5.4,0.3c0.1,0,0.3-0.1,0.5-0.1c0.2,0,0.3,0.1,0.5,0.1
			c0.4,0.1,4.4,0.1,5.4-0.3c2.5,0.3,2.1,0.4,4.9,0.4c5,0.1,9.5-0.5,10.5-0.5c2.2,0,8.5,0.1,9.5,0.5c1,0.3-0.2-2.4-0.3-3.1
			c-0.2-0.6,0.4-2.6,0.1-3.8c-0.2-1.2,0.8-3.8,0.8-4.7c0-0.9,0.1-1.6,0.3-2.3c0.2-0.7-0.9-3.8-1.1-5.3c-0.3-1.5,0.7-4.9,1.1-6.9
			c0.4-1.9,0.3-4.2,0-5.2c-0.3-1,2.4-3,2.4-4.3C74.1,27.3,72.8,26.7,73.5,25.6z"/>
		<path class="st28" d="M19,21.5h12c-0.3,1.3-0.4,2.7-0.4,4.1c0.5,5.3,4,20,4,20l5.7-22.9L46,45.1c0,0,3.5-19.7,3.5-21
			c-0.1-1-0.6-1.9-1.4-2.5h12.6c-1.7,1.6-2.9,3.5-3.6,5.7c-1.1,4.3-5,26.2-5,27.6c0.1,1.4,0.6,2.8,1.5,3.9H41.9
			c0.3-1,0.4-2.1,0.4-3.2c0-2-1.9-11.5-1.9-11.5S38,53.9,38,55.7c0,1.1,0.3,2.1,0.8,3.1H26.6c0,0,2.3-1.6,2.2-3.2
			c-0.3-4.5-6.5-27.7-7-29.5C21.5,24.3,20.5,22.6,19,21.5z"/>
		<g class="st4">
			<path class="st29" d="M23.5,64.6c0-0.4,0-11,0-17.6h0c0,0,0-2.4,0-6c-1.1-4.5-2.3-8.9-2.9-11.5c-0.4-1.7-0.7-2.7-0.8-3
				c0,0,0-0.1,0-0.1c-0.2-1.3-1-2.4-2-3.2c-0.8-0.5-1.1-1.5-0.8-2.4c0.3-0.9,1.1-1.5,2.1-1.5h4.5c0-2.3,0-3.8,0-4
				c0-0.9,2.2-3,3.1-3.6v-0.6h-0.2h-7.6h-0.1h-0.4h-0.4h-0.1h-7.6H10v0.6c0.8,0.6,3.1,2.7,3.1,3.6c0,0.4,0,6.4,0,13h0
				c0,0,0,35.3,0,36.3c0,0.9-2.2,3-3.1,3.6v0.6h0.2h7.6h0.1h0.4h0.4h0.1h7.6h0.2v-0.6C25.7,67.6,23.5,65.5,23.5,64.6z"/>
			<g>
				<path class="st29" d="M45,64.6c0-0.2,0-1.6,0-3.6h-3.1c-0.6,0-1.1-0.8-1.5-1.2c-0.4,0.4-1,1.2-1.5,1.2h-4.1c0,2.1,0,3.4,0,3.6
					c0,0.9-2.2,3-3.1,3.6v0.6h0.2h7.6h0.1h0.4h0.4h0.1h7.6h0.2v-0.6C47.3,67.6,45,65.5,45,64.6z"/>
				<path class="st29" d="M34.6,15.3c0,0.4,0,6.4,0,13h0c0,0,0,3.2,0,7.7l3.4-13.9c0.2-1,1.1-1.6,2.1-1.6c0,0,0,0,0,0
					c1,0,1.8,0.7,2.1,1.6l3.4,13.9c0-8.1-0.7-20.2-0.7-20.7c0-0.9,2.2-3,3.1-3.6v-0.6h-0.2h-7.6h-0.1h-0.4h-0.4h-0.1h-7.6h-0.2v0.6
					C32.4,12.4,34.6,14.5,34.6,15.3z"/>
			</g>
			<path class="st29" d="M66.5,47c0,0,0-30.7,0-31.7c0-0.9,2.2-3,3.1-3.6v-0.6h-0.2h-7.6h-0.1h-0.4H61h-0.1h-7.6h-0.2v0.6
				c0.8,0.6,3.1,2.7,3.1,3.6c0,0.2,0,1.7,0,4h4.5c0.9,0,1.7,0.5,2,1.4c0.3,0.8,0.1,1.8-0.5,2.4c-1.4,1.3-2.4,2.9-2.9,4.7
				c-0.6,2.4-1.9,9.3-3,15.6c0,9.7,0,20.6,0,21.2c0,0.9-2.2,3-3.1,3.6v0.6h0.2h7.6H61h0.4h0.4h0.1h7.6h0.2v-0.6
				c-0.8-0.6-3.1-2.7-3.1-3.6C66.5,64.2,66.5,53.6,66.5,47L66.5,47z"/>
		</g>
	</g>
	<g class="st0">
		<g class="st4">
			<defs>
				<circle id="SVGID_4_" cx="40" cy="40" r="28.1"/>
			</defs>
			<clipPath id="SVGID_5_">
				<use xlink:href="#SVGID_4_"  style="overflow:visible;"/>
			</clipPath>
			<path class="st30" d="M70.4,44.4v-8.8h-7.7c-0.6-3.1-1.8-5.9-3.5-8.4l5.5-5.5l-6.3-6.2l-5.5,5.5c-2.5-1.7-5.4-2.9-8.4-3.5V9.6
				h-8.8v7.8c-3.1,0.6-5.9,1.8-8.4,3.5l-5.5-5.5l-6.3,6.3l5.5,5.5c-1.7,2.5-2.9,5.4-3.5,8.4H9.6v8.8h7.7c0.6,3.1,1.8,6,3.5,8.5
				l-5.4,5.4l6.3,6.3l5.4-5.4c2.5,1.7,5.4,2.9,8.5,3.5v7.7h8.8v-7.7c3.1-0.6,6-1.8,8.5-3.5l5.4,5.4l6.3-6.3l-5.5-5.5
				c1.7-2.5,2.9-5.4,3.5-8.5H70.4z M56.5,40c0,9.1-7.4,16.5-16.5,16.5S23.5,49.1,23.5,40S30.9,23.5,40,23.5S56.5,30.9,56.5,40z"/>
		</g>
	</g>
	<g class="st0">
		<path class="st19" d="M76.4,57.9c0-0.4,0-1,0-1.4c0-0.2,0-0.3,0-0.5c0-0.5,0-1-0.1-1.4c-0.1-0.5,0.1-1.4-0.1-1.7
			c0-0.1,0.1-0.1,0.2-0.2c0-7.9,0-15.8,0-23.6c0-2.1,0-4.2,0-6.3c0-0.6,0.1-1.4-0.1-1.9c0-0.2,0-0.4-0.1-0.6
			c-0.2-0.1-0.4-0.1-0.6-0.2c-0.2-0.1-0.4-0.2-0.6-0.2c-0.6,0-1.2,0-1.8,0c-2.1,0-4.1,0-6.2,0c-3.3,0-6.5,0-9.8,0
			c-0.3,0-0.6,0-0.9-0.1c-0.3-0.1-0.7,0.1-1,0c-0.7,0-1.4,0-2,0c-0.4,0-0.9,0-1.4,0c-0.5,0-0.9,0-1.4,0c-0.4,0-0.8,0-1.3,0
			c-0.4,0.1-0.9,0-1.3,0c-0.6,0-1.4,0.1-1.9,0c-0.4,0-0.8,0-1.2,0c-0.3-0.1-0.9,0.1-1.3,0c-0.3-0.1-0.9,0.1-1.3,0
			c-0.3-0.1-1.2,0-1.6,0c-0.5,0-1.1,0-1.6,0c-0.2,0-0.6,0-0.7,0c-0.1,0-0.2,0.1-0.2,0.2c-0.5,0-0.6,0-0.9,0c-2.5,0-5,0-7.5,0
			c-1.3,0-3.3,0-3.7,0c-0.7,0-1.3,0-2,0c-2.9,0-5.7,0-8.6,0c-0.2,0-0.4,0-0.6,0c-0.5,0-1.2,0-1.8,0c-1.9,0-3.7,0-5.6,0
			c-0.6,0-1.3,0-1.9,0c-0.3,0-0.9-0.1-1.1,0c-0.1,0-0.3,0-0.4,0c-0.2,0-0.3,0.1-0.5,0.2c0,0.7,0,1.5,0,2.2c0,0.4,0,0.7-0.2,0.9
			c0,0.4,0,1,0,1.3c0.1,0.3,0,0.6,0,0.8c0,0.1,0,0.3,0,0.4c0,0.4,0,0.8,0,1.2c0,0.1,0,0.3,0,0.4c0,0.4,0,0.9,0,1.2
			c0,0.4,0,0.7,0,1.1c0,0.1,0,0.4,0,0.5c0,3.1,0,6.2,0,9.3c0,0.7,0,1.4,0,2.2c0,0.4,0.1,0.7-0.2,0.9c0,0.4,0,0.9,0.1,1.3
			c0.1,0.2,0,0.4,0,0.6c0.1,0.3,0,0.7,0.1,1c0,5.1,0,10,0,15.1c4.1,0,8.1,0,12.2,0c0.2-0.1,0.5-0.1,0.7-0.2c0.3,0,0.5,0,0.8,0
			c0.2,0,0.5,0,0.7,0c0.4,0.1,0.9,0,1.2,0c0.4,0.1,0.8-0.1,1.2,0c0.2,0,0.4,0,0.6,0c0.4,0,0.7,0,1.1,0c0.2,0,0.6,0,0.8,0
			c1.2,0,2.4,0,3.6,0c0.2,0,0.7,0,1,0c0.7,0,1.3,0,2,0c2,0,4.1,0,6.1,0c1.1,0,2.3,0,3.4,0c0.3,0.1,0.9,0.1,1.3,0c0.2,0,0.5,0,0.6,0
			c0.2,0,0.5,0,0.6,0c0.4,0,0.8,0,1.2,0c0.2,0,0.4,0,0.6,0c0.1,0,0.7-0.1,0.8,0c0.4,0.1,1.1,0,1.5,0c0.2,0,0.4,0,0.6,0
			c0.2,0,0.7,0,1.1,0c0.2,0,0.6,0,0.9,0c0.6,0,1.1,0,1.7,0c3.7,0,7.3,0,11,0c2.7,0,5.5,0,8.2,0c1-0.1,2.1-0.1,3.1-0.2
			c0.3,0.1,0.8,0.1,1.1,0.2c1,0,2,0,3,0C76.5,59.4,76.5,58.8,76.4,57.9z M54.9,38.2c-0.1,0.2,0,0.5,0,0.7c-0.1,0.2,0,0.5,0,0.8
			c-0.1,0.2,0,0.5,0,0.7c0,0.4,0,0.7,0,1.1c0,0.1,0,0.3,0,0.4c0,3.8,0,7.5,0,11.3c0,1.5,0,3,0,4.5c-0.1,0.2-0.3,0.4-0.4,0.6
			c-0.2,0-0.4,0-0.5,0c-1.6,0-3.3,0-4.9,0c-0.3,0-0.7,0-1,0c-0.2-0.1-0.6-0.2-1-0.1c-0.2,0-0.5,0-0.7,0c-0.6,0.1-1.4,0-2,0.1
			c-0.2,0-0.5,0-0.7,0c-0.2,0-0.4,0-0.6,0c-0.3,0.1-0.6,0-0.9,0c-0.6,0-1.2,0-1.8,0c-2.3,0-4.5,0-6.8,0c-9.2,0-18.4,0-27.6,0
			c0-5.1,0-10.2,0-15.3c0-1.3,0-2.5,0-3.7c0-0.4,0-0.8,0-1.1c0-0.3,0-0.6,0-0.8c0-0.1,0-0.3,0-0.4c0-0.4,0-1,0-1.4
			c0-0.5,0-1.1,0-1.6c0-1.5-0.1-3.1-0.1-4.6c0-0.4,0-0.9,0-1.3c0-0.1,0-0.4,0-0.5c0-0.2,0.1-0.2,0.2-0.4c0.1-0.1,0-0.6,0-0.8
			c0-0.7,0-1.5,0-2.2c0-0.2,0.1-0.8,0-0.9c0-0.2-0.1-1,0-1.1c0.1-0.1,0.8-0.2,1.1-0.2c0.2,0,0.4,0,0.6,0c0.2,0,0.4,0,0.6,0
			c0.4,0,0.8,0,1.2,0c3.1,0,6.2,0,9.2,0c7.7,0,15.3,0,23,0c4.1,0,8.1,0,12.2,0c0.4,0.1,0.8,0.2,1.2,0.2c0,1.4-0.1,2.8-0.1,4.2
			c0,3.4,0,6.8,0,10.1c0,0.3,0,0.6,0,0.9c0,0.1,0.1,0.3,0.1,0.4C55,37.9,55,38.1,54.9,38.2z M73.7,54.2c0,0.6,0,1.3,0,1.9
			c0,0-0.1,0.1-0.1,0.1c-0.1,0.1,0,0.3,0,0.3c0,0.1,0,0.4,0,0.5c0,0.1,0,0.1,0,0.1c-0.1,0-0.2,0.1-0.3,0.1c0.1,0.1,0.2,0.2,0.2,0.3
			c0,0.2,0,0.5,0.1,0.7c-1.3,0-2.7,0-4,0c-0.1,0-0.1-0.1-0.2-0.1c-0.1,0-0.1,0-0.2,0c-0.1,0-0.5,0-0.6,0c-0.1,0-0.4,0-0.6,0.1
			c-0.2,0-0.4,0-0.6,0c0,0-0.1-0.2-0.1-0.2c-0.1-0.1-0.4-0.4-0.4-0.5c0,0,0-0.1,0-0.1c0-0.1-0.2-0.2-0.2-0.3
			c-0.1-0.1-0.2-0.2-0.3-0.3c-0.2-0.3-0.4-0.6-0.7-0.9c-0.4-0.5-0.9-1-1.2-1.6c-0.4-0.5-0.8-0.9-1.2-1.4c0,0,0,0,0,0
			c0,0.3,0,0.7,0,1c0,0.2,0,0.4,0,0.5c0,0.2,0,0.4,0,0.6c0,0-0.1,0.2-0.1,0.2c0,0.2,0,0.3,0,0.5c0,0.1,0,0.2-0.1,0.3
			c0,0.2,0,0.7,0,0.9c0,0.1,0,0.3,0,0.4c0.1,0.3,0.1,0.6,0.1,0.9c-1.1,0-2.3,0-3.4,0c-0.6,0-1.4,0-2,0c0-0.1-0.1-0.2-0.1-0.3
			c0,0-0.1,0-0.1,0c0-0.2,0-0.3-0.1-0.3c0-0.6,0-1.2,0-1.8c0-0.4,0-0.9,0.1-1.3c0.1-0.3,0-0.7,0-0.9c0.1-0.3-0.1-0.4-0.1-0.6
			c0-0.5-0.1-1.3,0-1.7c0-0.1,0-0.3,0-0.4c0-0.1,0-0.2-0.1-0.2c0-0.1,0.2-0.2,0.2-0.3c0,0,0,0,0,0c-0.1-0.1-0.3-0.4-0.1-0.6
			c0-0.2,0-0.5,0-0.7c0,0-0.1,0-0.1,0c0-0.4,0-0.9,0-1.3c0.5,0,1,0,1.5,0c0.1,0,0.1,0.1,0.2,0.2c0,0,0.3,0,0.4,0
			c0.1,0,0.1-0.1,0.2-0.1c0.2,0,1,0,1.1,0c0.2,0,0.5,0,0.6-0.1c0.7,0,1.3,0,2,0c0.1,0,0.2,0.2,0.2,0.3c0.2,0.2,0.4,0.4,0.5,0.6
			c0.1,0.1,0.1,0.1,0.2,0.2c0.1,0.1,0,0.3,0.1,0.4c0.1,0.1,0.2,0.2,0.3,0.3c0.2,0.2,0.4,0.4,0.6,0.6c0.1,0,0.1,0,0.2,0.1
			c0.3,0.4,0.7,0.8,1,1.2c0.1,0.1,0.2,0.3,0.2,0.4c0,0.1,0.1,0.2,0.1,0.2c0.1,0.1,0.2,0.1,0.3,0.1c0.2,0.2,0.4,0.4,0.6,0.6
			c0,0,0,0,0,0c0-1.3,0.1-2.5,0.1-3.8c0-0.1,0-0.2,0-0.3c0,0,0,0,0.1,0c0-0.4,0-0.7,0-1.1c0.1,0,0.2,0,0.2-0.1c0.9,0,1.8,0,2.7,0
			c0.1,0,0,0.1,0,0.2c0.1,0,0.2,0.1,0.2,0.1c0.1,0,0.2,0.2,0.3,0.3c0.2,0,0.2-0.3,0.4-0.4c0.2-0.1,0.9-0.1,1.3-0.1c0,0,0,0,0-0.1
			c0.2,0,0.4,0,0.6,0c0,0.5,0,1.1,0,1.6c0,0.1-0.2,0.3-0.2,0.5c0,0.1,0.1,0.1,0.1,0.1c0,0.4,0,0.9,0,1.3c0,0.1-0.1,0.1-0.1,0.2
			c0.1,0.1,0,0.3,0.1,0.5C73.7,52.4,73.7,53.4,73.7,54.2z M74,40.4c0,0.2,0,0.4,0,0.6C74,41,74,41,74,41c0,0.1,0,0.4,0,0.5
			c0,0.2,0,0.5,0,0.7c0,0.1,0,0.3,0,0.4c0,0.1,0,0.3,0,0.4c-0.1,0.4-0.2,0.8-0.5,1c-0.8,0.6-1.6,0.9-2.6,1.2
			c-0.4,0.1-0.7,0.1-1.1,0.2c-0.1,0-0.2,0-0.4,0c-0.5,0.1-1,0.1-1.4,0.2c-0.1,0-0.2,0-0.3,0c-0.3,0.1-0.6,0-0.9,0
			c-0.1,0-0.2,0-0.3,0c-0.2,0.1-0.9,0.1-1.1,0c-0.5,0-0.9,0-1.4,0c-0.7-0.1-1.3-0.1-2-0.2c-0.1,0-0.1-0.1-0.2-0.2
			c-0.1,0-0.2,0.1-0.3,0c-0.3-0.1-0.6-0.1-0.8-0.2c-0.1,0-0.2,0.1-0.2,0c-0.1,0-0.3-0.1-0.4-0.1c-0.2-0.1-0.4-0.1-0.6-0.1
			c-0.6-0.2-1.1-0.5-1.6-0.9c-0.4-0.3-0.5-0.7-0.6-1.2c0-0.1,0-0.3,0-0.4c0-0.2,0.1-0.7,0-0.9c0-0.1,0-0.3,0-0.4c0,0,0.1,0,0.1,0
			c0-0.2,0.1-0.3,0.1-0.5c0-0.1-0.1-0.2-0.1-0.2c0-0.1-0.1-0.3-0.1-0.4c0-0.3,0-0.6,0-0.9c0-0.8,0-2,0.3-2.5
			c0.2-0.3,0.5-0.4,0.8-0.6c0.1-0.1,0.2-0.2,0.3-0.2c0.5-0.3,1.2-0.4,1.9-0.6c0.7-0.2,1.5-0.3,2.3-0.4c0.2,0,0.8-0.1,0.9,0
			c0.1,0,0.2-0.1,0.2-0.1c0.1,0,0.3,0,0.4,0c0.4-0.1,0.8,0,1.3,0c0.5,0,1.1,0,1.5,0.1c0.1,0,0.2,0,0.2,0c0.3,0,0.6,0,0.9,0.1
			c0.2,0.1,0.5,0,0.7,0.1c0.6,0.2,1.3,0.2,1.9,0.4c0.4,0.1,0.8,0.2,1.1,0.4c0.2,0.1,0.3,0.2,0.5,0.2c0,0.1,0,0.2,0,0.3
			c0.2,0,0.2-0.1,0.3-0.2c0.3,0.3,0.6,0.4,0.8,0.8c0.1,0.3,0.1,0.7,0.2,1.1c0,0.1,0,0.2,0,0.3c0,0.2,0,0.5,0,0.7
			C74.1,39.2,74,39.9,74,40.4z M74.4,26.3c-0.2,0-0.3,0-0.5,0c0,0,0-0.1-0.1-0.1c-0.1,0-0.2,0.1-0.3,0.1c-0.4,0-0.9,0-1.3,0
			c-0.3,0-0.7,0-1,0c-0.2-0.1-0.7-0.1-0.9-0.1c-0.1,0-0.1,0-0.1,0.1c-0.5,0-1,0-1.6,0c-0.1,0-0.2-0.1-0.3-0.1c-0.1,0-0.1,0-0.2,0
			c-0.1,0-0.1-0.1-0.2-0.1c0,0-0.3,0.2-0.3,0.2c-0.1,0-0.1,0-0.2,0c0-0.8,0.2-2.6-0.3-2.9c-0.5-0.4-2.3-0.3-2.7,0.2
			c-0.3,0.4-0.3,1.4-0.3,2.1c0,0,0.1,0,0.1,0c0,0.5,0,1.2,0,1.8c0,0.3,0,0.8,0,1.1c-0.1,0.2,0,0.5,0,0.7c0,0.1,0,0.3,0,0.4
			c0,0.3-0.1,0.2-0.1,0.3c0,0.3,0,0.6,0,0.9c0.1,0,0.1,0,0.2-0.1c0.1,0.1,0.2,0.4,0.4,0.5c0.5,0.3,2,0.3,2.4-0.1
			c0.2-0.1,0.3-0.4,0.3-0.6c0-0.1,0-0.2,0-0.3c0-0.4,0-0.7,0-1.1c0-0.1,0-0.4,0-0.4c0.2-0.2,0.6,0.1,0.9,0c0.5-0.2,1.4-0.1,1.9-0.1
			c0.2,0,0.5,0,0.7,0c0.2,0,0.7,0.4,0.9,0.3c0.1,0,0.1-0.2,0.2-0.3c0.2,0,0.5,0,0.6,0c0.3,0,1.1-0.1,1.2,0.1c0.2,0,0.3,0,0.4,0
			c0,1-0.1,1.9-0.5,2.4c-0.2,0.2-0.4,0.3-0.7,0.5c-0.5,0.3-1.3,0.5-1.9,0.7c-0.2,0-0.5,0.1-0.7,0.1c-0.5,0.1-1.1,0.1-1.7,0.3
			c-0.2,0.1-0.6,0.1-0.7-0.1c-0.1,0-0.1,0.1-0.2,0.2c-0.2,0-0.4,0-0.6,0c-0.2,0-0.4,0-0.6,0c-0.5,0.1-0.9,0-1.3,0c0-0.1,0-0.1,0-0.2
			c0,0,0,0,0,0c-0.4,0-0.8,0.1-1.1,0.2c-0.2,0.1-1,0-1.2-0.1c-0.4,0-0.8-0.1-1.2-0.1c-0.4-0.1-0.8-0.1-1.1-0.2c-0.1,0-0.2,0-0.2,0
			c-0.2-0.1-0.5-0.2-0.7-0.3c-0.1,0-0.2,0-0.4,0c-0.2,0-0.3-0.2-0.4-0.3c-0.1,0-0.2,0.1-0.2,0.1c-0.2,0-0.4-0.2-0.5-0.3
			c-0.6-0.4-0.8-0.9-1-1.6c-0.1-0.3,0-1.2,0.1-1.3c0-0.1-0.1-0.2-0.2-0.2c0-0.4,0-0.7,0-1.1c0.1,0,0.2-0.1,0.2-0.1
			c-0.1-0.1-0.2-0.2-0.2-0.3c0.1-0.2,0.1-0.7,0-0.9c0-0.1,0-0.4,0-0.5c0-0.2,0-0.3,0-0.5c0.1-0.3,0.1-0.7,0.2-0.9
			c0.2-0.5,0.8-0.9,1.3-1.1c0.2-0.1,0.3-0.2,0.5-0.2c0.1,0,0.2,0,0.2,0c0,0,0.1-0.1,0.2-0.1c0.1,0,0.2,0.1,0.3,0.2
			c0.1-0.1,0.2-0.3,0.4-0.4c0.1,0,0.2,0,0.3,0c0,0,0-0.1,0-0.1c0.1,0,0.3,0,0.4-0.1c0.2-0.1,0.6-0.1,0.8-0.1c0.1,0,0.2,0,0.4,0
			c0.4-0.1,0.9-0.1,1.3-0.2c0.2,0,0.4,0,0.6,0c0.3-0.1,0.8,0,1.2,0c0.5-0.1,1.5,0,1.9,0.1c0.3,0.1,0.5-0.1,0.7,0
			c0.3,0.1,0.7,0.1,1.1,0.1c0,0,0.1,0.1,0.1,0.1c0,0,0.2-0.1,0.3-0.1c0.4,0.1,0.8,0.1,1.2,0.2c1.1,0.3,2.2,0.5,3,1.1
			c0.2,0.2,0.4,0.5,0.5,0.8c0.1,0,0,0,0.1,0C74.4,24.6,74.5,25.5,74.4,26.3z"/>
		<path class="st19" d="M67.1,37.1c0-0.4-0.2-0.8-0.5-0.9c-0.4-0.2-1.6-0.2-2,0.1c-0.1,0.1-0.3,0.2-0.3,0.4
			c-0.2,0.5-0.1,1.3-0.1,1.9c0,0.1,0,0.3,0,0.4c0,0,0.1,0,0,0.1c0,0-0.1,0.1-0.1,0.2c-0.1,0.3,0.2,0.7-0.1,0.9
			c0,0.1,0.1,0.1,0.1,0.1c0,0.5,0,1,0,1.5c0,0.3,0,0.6,0,0.8c0,0.2,0,0.3,0,0.5c0.1,0.2,0.1,0.5,0.2,0.7c0.3,0.5,1.8,0.5,2.3,0.1
			c0.2-0.2,0.2-0.4,0.3-0.6c0,0,0,0,0.1,0c0-1.4,0-3,0-4.5c0-0.5-0.1-1.4,0.2-1.6C67.3,37.1,67.2,37.1,67.1,37.1z"/>
		<g class="st4">
			<path class="st11" d="M19.6,23.7c0.2,0,0.4,0,0.5,0c0.1,0.1,0.1,0.2,0.3,0.2c0.1,0.1,0.5,0,0.6,0c0.4,0,0.9,0,1.4,0
				c0.2,0.2,0.3,0.5,0.6,0.6c0.1,0,0.2,0,0.3,0c0.1,0,0.2,0.1,0.2,0.1c0.1,0.1,0.3,0.3,0.4,0.4c0.1,0.1,0.2,0.2,0.3,0.3
				c0.2,0.2,0.3,0.4,0.5,0.6c0,0.9,0,1.7,0,2.6c-0.1,0.1-0.2,0.2-0.2,0.4c0,0,0,0.1,0,0.1c0,0.1,0.2,0.3,0.3,0.4
				c0.1,0,0.2,0,0.2,0.1c0,0.5,0,0.9,0,1.3c-0.2,0.1-0.2,0.1-0.2,0.4c-0.1,0.1,0,0.3,0,0.4c0,0.4,0,0.7,0,1.1c0,1.3,0,2.6,0,3.9
				c0.2,0.1,0.4,0.2,0.5,0.4c0.2,0.3,0.1,0.9,0.2,1.3c0,0.2,0.1,0.6,0,0.9c0,0.2,0,0.4,0,0.6c0,0.4,0,0.8,0,1.2c0,0.2,0,0.4,0,0.6
				c0,0.2,0,0.4,0,0.6c-0.1,0.2,0,0.6,0,0.8c-0.1,0.1-0.2,0.1-0.3,0.2c0,0.6,0,1.3,0,1.9c0.3,0.2,0.3,0.3,0.3,0.9
				c-0.1,0.1,0,0.8,0,1c-0.3,0.1-0.5,0.4-0.5,0.7C25.1,48,25,48,25,48.4c0,0,0,0.1,0,0.1c0,0.1-0.1,0.1-0.1,0.2
				c-0.1,0.1,0,0.4-0.1,0.5c-0.1,0.3,0,0.6-0.1,0.8c0,0.1-0.2,0.1-0.2,0.2c0,0.1,0,0.3,0,0.4c-0.1,0.2,0,0.9,0,1.2
				c-0.1,0.3-0.2,0.4-0.3,0.8c0.1,0.1,0.2,0.4,0.2,0.7c0.1,0,0.2,0.1,0.3,0.1c0.1,0,0.2,0,0.4,0c0.5,0,1,0,1.4,0
				c0.1-0.1,0.6-0.5,0.8-0.6c0.1,0,0.1,0,0.2,0c0.1,0,0.3,0,0.4,0c0.1,0,0.2,0.1,0.2,0.1c0.4,0.1,0.8,0.1,1.2,0.2
				c0.1,0,0.3,0.1,0.4,0.1c0.2,0,0.4-0.1,0.6-0.2c0.1,0,0.2,0,0.4-0.1c0.1-0.1,0.2-0.3,0.4-0.3c0.4,0,0.8-0.1,1.3-0.1
				c0.3-0.1,0.6-0.1,0.9-0.1c0.2,0,0.4,0,0.5,0c0.5-0.1,1.8,0,2.5,0c0.4,0,0.9,0,1.3,0c0.2,0,0.5,0,0.7,0c0.3,0.1,0.6,0,0.9,0
				c0.3,0.1,0.9-0.1,1,0.1c0,0.2,0,0.3,0,0.5c0.1,0.1,0,0.6,0,0.8c0,0.4,0,0.7,0,1.1c0,0.2,0,0.5,0,0.7c0.1,0.5,0.4,0.9,0.6,1.4
				c-0.6,0-1.3,0-1.9,0c-0.1,0.1-1.3,0-1.8,0c0-0.2-0.1-0.3-0.3-0.2c-0.1-0.1-0.6,0-0.8,0c0-0.1-0.1-0.2-0.1-0.3
				c-0.2,0-0.4-0.1-0.6-0.1c-0.1-0.1,0-0.2-0.2-0.2c-0.1-0.1-0.6,0-0.8,0c-0.3,0-0.9,0-1.2,0c-0.2,0-0.5,0-0.7,0
				c-0.2-0.1-0.3-0.2-0.5-0.3c-0.1,0-0.2,0-0.3,0c-0.3-0.1-0.7,0-1,0c-0.9,0-1.8,0-2.7,0c-0.6,0-1.3,0-1.9,0c-0.2,0-0.6,0-0.7,0
				c-0.1-0.1-0.2-0.2-0.3-0.3c-0.1,0-0.1,0-0.2,0c-0.4-0.2-0.5-0.2-1.1-0.2c-0.1,0-0.2,0-0.2,0c-0.1,0-0.2,0.2-0.4,0.2
				c-0.4,0.2-0.7,0.5-1,0.8c-0.1,0.1-0.2,0.5-0.4,0.5c-0.1-0.1-0.3,0-0.5,0c-0.3-0.1-0.7-0.1-1.2-0.1c-0.1,0-0.3,0-0.4,0
				c-0.1,0-0.6,0.1-0.6,0.1c-0.1-0.1-0.1-0.2-0.1-0.2c-0.1-0.1-0.2-0.1-0.2-0.2c0.1,0,0.3-0.3,0.3-0.3c0,0,0,0,0,0
				c0-0.1,0-0.2,0-0.2c0.5-0.2,0.9-0.6,1.3-0.9c0.1-0.1,0.4-0.2,0.4-0.3c0-0.3,0-0.5,0-0.8c0,0-0.1-0.3,0-0.4c0,0,0.1-0.1,0.1-0.1
				c0-0.1,0-0.2,0-0.4c-0.1,0-0.1-0.1-0.2-0.1c0-0.4,0-0.7,0-1.1c-0.1-0.1,0-0.9,0-1.1c0.2,0,0.3-0.1,0.3-0.4c0-0.1,0-0.6,0-0.8
				c0.1-0.1,0.3-0.1,0.3-0.3c0.2-0.3-0.5-0.7-0.5-0.9c0-0.1,0-0.2,0-0.3c0-0.2,0-0.4,0-0.7c0-0.2,0-0.4,0-0.6c0-0.3,0-0.5,0-0.8
				c0-0.1,0-0.2,0-0.2c0-0.1,0-0.2,0-0.3c0-0.2,0-0.4,0-0.6c0.3-0.2,0.2-0.6,0.2-1c-0.1-0.1,0-0.9,0-1.2c0.2-0.1,0.3-0.1,0.3-0.4
				c-0.1-0.1,0-0.7,0-0.9c0-0.6,0-1.2,0-1.8c0-0.1,0.2-0.3,0.3-0.4c0-0.2-0.1-0.4-0.1-0.6c-0.3-0.2-0.2-0.7-0.2-1.2c0-1,0-2.1,0-3.1
				c-0.1-0.1-0.2-0.2-0.2-0.4c0-0.1,0-0.3,0-0.6c0-0.5,0-0.9,0-1.4c0.2-0.1,0.2-0.3,0.4-0.4c0,0,0.1,0,0.2,0c0-0.7,0-1.3,0-2
				c-0.1-0.1-0.2-0.1-0.2-0.3c-0.1-0.2,0.1-0.6,0.2-0.7c0.2-0.6,0.1-1-0.1-1.6c-0.1-0.2-0.1-0.5-0.3-0.6c-0.1-0.1-0.3,0-0.4-0.1
				c-0.1,0-0.2-0.1-0.3-0.1c0,0-0.1-0.1-0.1-0.1c-0.1-0.1-0.1-0.3-0.2-0.4c0,0-0.1-0.1-0.1-0.1c-0.1-0.2-0.3-0.4-0.5-0.5
				c-0.2-0.2-0.4-0.2-0.5-0.4C19.5,24.1,19.6,23.9,19.6,23.7z"/>
			<path class="st11" d="M42.5,24c3.1,0,6.1,0,9.2,0c0.1,0.1,0.1,0.2,0.2,0.3c0.1,0,0.2,0,0.3,0c0,0.1,0,0.2,0,0.2
				c0.1,0.1-0.2,0.5-0.2,0.6c-0.3,0.6-0.5,1.2-0.9,1.6c0,0.3,0,0.6-0.1,0.9c0,0.1,0,0.2,0,0.3c0,0-0.4,0.5-0.4,0.5
				c-0.1,0.1-0.2,0.1-0.3,0.2c0,0.2,0,0.4,0,0.5c0,0.1,0,0.1,0,0.2c0,0.3-0.1,0.5-0.3,0.6c-0.1,0-0.1,0.1-0.2,0.1
				c-0.1,0.2-0.1,0.5-0.2,0.8c-0.1,0.4,0,0.8-0.2,1.1c-0.2,0.4-0.4,0.9-0.5,1.3c0,0.3,0,0.7,0,1c0,0.7,0,1.3,0,2
				c-0.2,0.1-0.3,0.7-0.4,1c-0.2,0.4-0.3,0.9-0.4,1.2c-0.1,0.1-0.2,0.3-0.2,0.4c0,0.1,0,0.2,0,0.3c0,0.2,0,0.4-0.1,0.6
				c-0.1,0.5-0.6,0.7-0.7,1.1c0,1,0,2,0,3c-0.2,0.8-0.6,1.5-0.8,2.3c-0.1,0.2,0,0.5,0,0.6c0.1,0.3,0,0.8-0.1,1
				c-0.2,0.6-0.5,1.2-0.7,1.7c-0.1,0.1-0.2,0.2-0.2,0.3c0,0,0,0.1,0,0.1c0,0.2-0.1,0.3-0.2,0.5c-0.1,0.3-0.2,0.5-0.2,0.9
				c0.1,0,0.1,0,0.2,0c0.1-0.2,0.7-0.2,1-0.1c0.1,0,0.7,0,0.7-0.1c0-0.1,0-0.2,0.1-0.2c0.1-0.2,0.1-0.5,0.3-0.7
				c0.1-0.1,0.2-0.1,0.3-0.1c0.2-0.1,0.3-0.2,0.5-0.3c0.2-0.1,0.5-0.1,0.7-0.2c0.3-0.1,0.6-0.4,0.9-0.5c0.2-0.1,0.4-0.2,0.6-0.3
				c0.1,0,0.1-0.1,0.1-0.2c0.1-0.2,0.3-0.3,0.4-0.4c0.1-0.1,0.2-0.1,0.2-0.2c0.1,0,0.2,0.2,0.4,0.2c0.1,0,0.3,0,0.4,0
				c0.3,0.1,0.6,0,0.9,0.1c0.2,0.3,0.4,0.4,0.4,0.8c0.1,0.1-0.1,0.2-0.1,0.3c0,0.1-0.1,0.2-0.1,0.2c0,0.1,0,0.6,0,0.7
				c0,0.1,0.2,0.3,0.2,0.4c0,0.9,0,1.8,0,2.6c-0.1,0-0.2,0.1-0.2,0.2c0,0.1,0,0.2,0,0.2c-0.1,0-0.2,0-0.3,0c-0.1,0-0.2,0-0.3,0
				c-1.1,0-2.3,0-3.4,0c-0.1-0.2-0.1-0.3-0.4-0.3c-0.1-0.1-0.2,0-0.4,0c-0.2-0.1-0.5-0.1-0.8-0.1c-0.2,0.3-0.7,0.6-1,0.7
				c-0.3,0-0.6,0-0.9,0c-0.3,0.1-0.9-0.1-1.2,0c-0.2,0.1-0.3,0.1-0.5,0.2c-0.2,0.1-0.5,0.2-0.8,0.2c-0.1,0-0.3,0-0.4,0
				c-0.2-0.1-0.1-0.3-0.2-0.5c-0.1-0.5,0-1.2,0-1.7c0.2-0.1,0.4-0.5,0.3-0.9c0,0,0-0.2,0-0.2c0-0.3,0.3-0.4,0.4-0.7
				c0-0.2,0.1-0.4,0.1-0.6c0-0.1,0-0.2,0-0.2c0-0.1,0.1-0.2,0.2-0.3c0.1-0.1,0.2-0.2,0.2-0.3c0-0.1,0-0.2,0-0.2c0-0.1,0-0.3,0-0.4
				c0.1-0.3,0.2-0.6,0.3-0.9c0-0.5-0.1-1.1-0.1-1.6c-0.1-0.3-0.3-0.5-0.4-0.9c0-0.4,0-0.7-0.1-1.1c0-0.2-0.1-0.6-0.1-0.8
				c0.1-0.4,0-0.9,0.1-1.2c0-0.2,0-0.3,0-0.5c0.1-0.3,0.2-0.8,0.3-1.1c0.3-0.7,0.5-1.4,0.8-2.1c0.2-0.5,0.5-1,0.5-1.7
				c-0.2-0.1-0.2-0.4-0.1-0.7c0.2-0.2,0.3-0.5,0.4-0.8c0-0.2,0-0.4,0-0.5c0-0.1,0.1-0.2,0.1-0.2c0.1-0.2,0.2-0.3,0.2-0.5
				c0.1-0.1,0.2-0.3,0.2-0.4c0-0.1,0-0.2,0.1-0.4c0-0.1,0.1-0.3,0.1-0.5c0-0.1-0.1-0.3,0-0.5c0.1-0.2,0.2-0.4,0.3-0.6
				c0.2-0.4,0.2-0.8,0.4-1.1c0-0.1,0.1-0.2,0.2-0.3c0.1-0.2,0.2-0.4,0.4-0.7c0.1-0.1,0.1-0.2,0.2-0.3c0.1-0.2,0.3-0.3,0.4-0.5
				c0.1-0.3,0-0.7,0-1c0.1-0.1,0.2-0.1,0.2-0.4c-0.4-0.1-1-0.1-1.5-0.1c-0.1-0.1-0.3-0.4-0.5-0.4c-0.2-0.2-0.7,0-0.9,0.1
				c-0.1,0-0.3,0-0.3,0c-0.1,0.2-0.2,0.4-0.3,0.6c-0.3,0.7-0.4,1.7-0.7,2.5c-0.1,0.3-0.3,1-0.6,1c-0.1-0.1-0.3,0-0.5,0
				c0,0.1-0.1,0.2-0.2,0.2c-0.1-0.1-0.4-0.2-0.4-0.4c0.1-0.1,0-0.2,0.1-0.3c0-0.1,0.1-0.2,0.1-0.3c0-0.2-0.2-0.6-0.1-0.9
				c0-0.2,0.2-0.3,0.3-0.4c0-0.1,0.1-0.2,0.1-0.4C42.5,27.1,42.5,25.6,42.5,24z"/>
			<path class="st11" d="M40.9,24.2c0,0.5,0,1,0,1.5c0.1,0.2,0.2,0.3,0.3,0.5c0,1.6,0,3.3,0,5c-0.2,0.1-0.4,0.9-0.4,1.3
				c0,0.1,0.1,0.3,0.1,0.4c-0.1,0.1-0.1,0.2-0.2,0.2c-0.1,0.1-0.2,0.2-0.3,0.3c-0.1,0.2-0.2,0.5-0.3,0.7c-0.2,0.5-0.4,1.1-0.7,1.7
				c0,0.1-0.1,0.2-0.2,0.2c0,0.4,0,0.8,0,1.3c-0.6,0.3-1.1,0.6-1.3,1.3c-0.1,0.4,0.1,0.8,0,1c-0.1,0.1-0.2,0.2-0.4,0.3
				c-0.3,0.4-0.6,0.7-0.8,1.1c-0.3,0.6-0.5,1.2-0.7,1.9c-0.1,0.3-0.3,0.6-0.4,0.9c0,0.1-0.1,0.5,0,0.7c0,0,0,0.1,0,0.2
				c-0.1,0.2-0.1,0.4-0.2,0.5c-0.3,0.7-0.6,1.5-0.9,2.3c-0.1,0.2-0.2,0.5-0.3,0.7c0,0.1-0.1,0.2-0.2,0.3c0.1,0.1,0.1,0.2,0.3,0.2
				c0.1,0,0.4-0.1,0.5-0.1c0.1-0.1,0.2-0.1,0.2-0.2c0.1-0.1,0.2-0.2,0.3-0.2c0.5-0.2,1.1-0.2,1.6-0.4c0.2-0.1,0.3-0.3,0.5-0.5
				c0.2-0.3,0.5-0.6,0.7-0.9c0.1-0.2,0.2-0.4,0.4-0.5c0.2-0.1,0.8-0.4,0.9-0.5c0.2-0.2,0.2-0.9,0.6-1c0.1,0.1,0.1,0.2,0.2,0.2
				c0.1,0,0.2-0.1,0.2-0.1c0.2-0.4,0.4-0.8,0.6-1.2c0.3,0,0.5,0,0.8,0c0,0.5,0,1,0.1,1.4c0,0.1-0.1,0.2-0.1,0.3
				c0,0.1-0.1,0.2-0.1,0.2c-0.1,0.2-0.3,0.4-0.4,0.7c0,0.9,0,1.9,0,2.8c0,0.3,0.1,0.9-0.1,1c-0.1,0.1-0.5,0.2-0.6,0.2
				c-0.1,0-0.2,0.1-0.3,0.2c0,0,0,0.1-0.1,0.1c-0.1,0-0.2,0-0.2,0c-0.1,0.1-0.7,0-0.9,0c-0.6,0-1.2,0-1.9,0
				c-0.1-0.4-0.4-0.3-0.8-0.3c0,0-0.1,0-0.1,0c-0.1,0.1-0.2,0.4-0.4,0.4c-0.3,0.2-0.8-0.2-1-0.2c-0.7,0-1.4,0-2.1,0
				c-0.1-0.2-0.3-0.2-0.3-0.6c0.1,0,0.3-0.3,0.3-0.4c0-0.1,0-0.3,0-0.4c0-0.1,0-0.3,0-0.4c0-0.3,0-0.6,0-0.9
				c0.2-0.1,0.3-0.2,0.2-0.6c0-0.1,0-0.2-0.1-0.2c-0.1-0.2-0.4-0.5-0.5-0.8c0,0,0.2-0.5,0.2-0.7c-0.1-0.1-0.2-0.2-0.2-0.3
				c0,0,0-0.6,0-0.6c0-0.2,0-0.4,0-0.6c0.1-0.4,0.1-0.8,0.2-1.1c0-0.2,0-0.3-0.1-0.4c0-0.1,0-0.1,0-0.2c0.3-0.2,0.4-1,0.5-1.4
				c0-0.1,0-0.2,0.1-0.3c0-0.1,0.1-0.1,0.2-0.2c0.2-0.2,0.3-0.4,0.4-0.6c0.1-0.2,0.3-0.3,0.4-0.5c-0.1-0.2,0.1-0.5,0.1-0.6
				c0.1-0.2,0-0.3,0.1-0.5c0-0.1,0.2-0.2,0.2-0.2c0.1-0.2,0.2-0.4,0.4-0.6c0.1-0.1,0.2-0.2,0.2-0.3c0.1-0.3,0.1-0.5,0.2-0.8
				c0.2-0.7,0.4-1.5,0.7-2.2c0-0.1,0-0.2,0.1-0.3c0-0.1,0.1-0.1,0.2-0.1c0.1-0.1,0.2-0.2,0.3-0.3c0.1-0.1,0.2-0.1,0.2-0.2
				c0.2-0.2,0.2-0.7,0.4-0.8c0.2-0.1,0.6-0.4,0.6-0.7C38,31.6,38,30.9,38,30.7c0-0.1,0-0.2,0-0.3c0.1-0.2,0.3-0.4,0.5-0.6
				c0.3-0.4,0.6-0.8,0.9-1.1c0.1-0.2,0.5-0.5,0.6-0.6c0-0.1,0-0.3,0-0.4c0.1-0.1,0-0.3,0-0.5c0-0.3,0-0.6,0-0.9c-0.9,0-1.9,0-2.8,0
				c-0.5,0.1-1,0.5-1.3,0.9c-0.1,0.2-0.3,0.4-0.4,0.7c0,0.1,0,0.4-0.1,0.5c-0.2,0.2-0.9,0.3-1,0.7c0,0.8,0,1.5,0,2.3
				c-0.1,0.2-0.2,0.4-0.4,0.6c-0.1,0.2-0.1,0.4-0.4,0.4c-0.1-0.1-0.2-0.3-0.2-0.4c0-0.1,0.1-0.2,0-0.3c0-0.1-0.2-0.2-0.2-0.4
				c-0.1-0.4-0.1-0.8-0.2-1.2c0,0-0.1-0.1-0.1-0.1c0-0.1,0-0.2,0.1-0.3c0.1-0.2,0.2-0.8,0.2-1c0-0.2-0.1-0.5-0.2-0.6
				c-0.1-0.1-0.3-0.3-0.3-0.3c0-0.9,0-1.7,0-2.5c0.2-0.2,0.3-0.4,0.2-0.7c0.2-0.1,0.8,0,1.1,0c0.1,0,0.3,0,0.5,0c0.4,0,0.9,0,1.3,0
				c0.2,0,0.9,0,1.3,0c1,0,2.6-0.1,3.1,0C40.5,24.2,40.7,24.2,40.9,24.2z"/>
			<path class="st11" d="M31.5,51.2c-0.2,0-0.3-0.1-0.4-0.1c-0.1,0-0.2,0-0.3,0c0,0-0.1,0-0.1,0c-0.1,0-0.3,0.1-0.4,0.2
				c-0.2,0-0.3-0.1-0.5-0.1c-0.2,0-0.9,0-1.1,0c-0.1,0-0.3,0-0.4,0c-0.3,0-0.7,0-1,0.1c-0.1,0-0.6,0.4-0.7,0.5
				c-0.2-0.1-0.6-0.2-0.6-0.5c0.3-0.2,0.5-0.7,0.8-0.9c0.1-0.1,0.4-0.2,0.4-0.4c0.1-0.2,0-0.7,0.1-0.9c0.1-0.2,0-0.5,0.1-0.7
				c0.1-0.6,0.1-1.3,0.1-1.9c0.5-0.3,0.1-0.8,0-1.2c0-0.2,0.1-0.5,0.1-0.7c0.1-0.2,0.2-0.5,0.3-0.7c0.1-0.2,0-0.7,0-0.8
				c-0.1-0.5,0.1-1.3,0-1.8c-0.1-0.5,0.1-1.2,0-1.6c0-0.6,0-1.1,0-1.7c-0.1-0.3,0-1,0-1.5c0-0.2,0-0.3,0-0.5c-0.1-0.3,0-1.1,0-1.6
				c0-0.6,0-1.2,0-1.8c0.1-0.1,0.2-0.2,0.2-0.3c0,0,0,0,0,0c0,0,0,0,0,0c-0.2-0.2-0.2-0.1-0.2-0.4c-0.1-1.8-0.2-3.7-0.4-5.5
				c-0.2-0.4-0.8-0.3-1-0.6c0,0,0-0.1,0-0.1c-0.1-0.1-0.2,0-0.4,0c-0.1-0.2-0.4-0.3-0.6-0.6c0.1-0.1,0.2-0.4,0.3-0.5
				c0.3,0.1,0.7,0.1,1.1,0.1c0.4,0,0.9,0,1.3,0c0.3,0.1,1,0.1,1.3,0c0.4,0,0.7,0,1.1-0.1c0.1,0,0.3-0.1,0.3-0.1
				c0.1,0.1,0.4,0.4,0.5,0.6c0,0.2,0,0.3,0,0.5c-0.1,0.2-0.5,0.3-0.7,0.4c-0.4,0.3-0.7,0.6-0.7,1.3c0.1,0,0.2,0.1,0.2,0.2
				c0.2,0.2,0,0.6-0.1,0.8c-0.1,0.1-0.1,0.1-0.2,0.2c-0.1,0.2,0,0.6,0,0.9c0,0.7,0,1.4,0,2.1c0.1,0.3,0,0.8,0,1.2c0,0.9,0,1.8,0,2.6
				c0,0.2,0,0.4,0,0.5c0,0-0.1,0.2,0,0.2c0.1,0.2,0.1,0.4,0.1,0.5c0,0.1,0,0.2,0,0.3c0,0,0.1,0.1,0.1,0.1c0,0.2,0.1,0.5,0.1,0.7
				c-0.1,0.3-0.3,0.4-0.4,0.7c0,0.1,0,0.3,0,0.4c0,0.4,0,0.7,0,1c0,0.2,0.1,0.4,0.1,0.5c0,0.2,0,0.4,0,0.6c0,0.1,0,0.2,0,0.2
				c0,0,0.1,0,0.1,0c0,0.1,0,0.1,0,0.2c0.1,0.3,0,0.6,0,0.9c-0.2,0.1-0.4,0.3-0.5,0.5c-0.1,0.3,0.1,1,0.2,1.3c0,0.2-0.1,0.4,0,0.6
				c0.1,0.2,0.2,0.4,0.3,0.6c0,0.1,0,0.2,0.1,0.3c0,0.1,0.1,0,0.1,0.1c-0.1,0.1,0,0.4,0,0.5c-0.1,0.4-0.1,1-0.1,1.4
				c-0.5,0.2-0.4,0.6-0.3,1.1c0,0.1,0.1,0.3,0.1,0.4c0.1,0.3,0.4,0.3,0.6,0.5c0.3,0.2,0.6,0.4,0.9,0.6c0.1,0,0.1,0.1,0.2,0.1
				C31.5,50.3,31.5,50.9,31.5,51.2z"/>
			<path class="st11" d="M19.6,45.3c0-0.2,0-0.5,0-0.7c-0.1-0.2-0.1-0.5-0.1-0.7c0-0.4,0-0.8,0-1.2c-0.1-0.2-0.1-1,0-1.2
				c0-0.1-0.2-0.2-0.2-0.2c-0.1-0.1-0.3-0.4-0.4-0.6c0-0.1,0-0.3,0-0.4c-0.1-0.5-0.1-1.2,0-1.6c0-0.1,0.1-0.7,0.1-0.8
				c0-0.2-0.2-0.2-0.3-0.3c0,0,0-0.1,0-0.1c-0.1-0.2-0.3-0.3-0.4-0.5c-0.1,0-0.1,0-0.1,0c-0.1,0-0.2-0.2-0.3-0.3
				c-0.2-0.2,0.4-0.9,0.2-1.2c-0.2-0.2-0.6-0.2-0.9-0.2c-0.3-0.1-0.4-0.3-0.6-0.4c0-0.3,0.1-0.3,0.2-0.4c0.2-0.2,0.3-0.4,0.5-0.6
				c0.1-0.1,0.2-0.2,0.2-0.3c0.1-0.1,0.1-0.2,0.1-0.3c0.1-0.2,0.3-0.4,0.5-0.6c0.2-0.3,0.3-0.6,0.5-0.9c0.2-0.3,0.5-0.7,0.6-1.1
				c0.2-0.5,0-1.4-0.1-1.9c0-0.3,0-0.7,0-1c-0.2-0.8-0.3-1.7-0.9-2.2c-0.2-0.1-0.4-0.3-0.7-0.4c-0.3-0.1-0.5-0.1-0.8-0.2
				c-0.1,0-0.3-0.2-0.4-0.3c-0.1-0.2-0.1-0.5-0.3-0.5c-0.1-0.1-0.7,0-0.9,0c-0.4,0-0.8,0-1.3,0c-0.4,0.1-1.3,0.2-1.8,0.1
				c-0.3,0-0.5,0-0.8,0c-0.6,0-1.2,0-1.8,0.1c-0.2,0-0.3,0-0.5,0c-0.2,0.1-1,0.2-1.2,0.1c-0.2,0-0.3,0-0.5,0c-0.1,0-0.2,0.2-0.2,0.3
				c0,0.1,0,0.3,0,0.4c0,0.2,0.1,0.2,0.2,0.3c0.3,0.5,0.9,0.7,1.2,1.3C8.6,26.9,8.9,27,9,27c0.1,0,0.1,0,0.1,0.1
				c0.1,0.2,0,0.7,0.1,0.9c0,0.2-0.2,0.3-0.3,0.4c0,0.6,0,1.3-0.1,1.9c0,0.1,0,0.4,0,0.6c0,0.4,0,0.9,0,1.2c0,0.6,0,1.3,0,1.9
				c0,0.3,0,0.6,0,0.9c0.1,0.3,0.4,0.4,0.3,0.8c-0.1,0.2,0,0.6,0,0.8C9.2,36.7,9,36.8,9,37c0,0.2,0,0.4,0,0.6
				c-0.1,0.3,0,1.4,0.1,1.6c0,0.1,0.1,0.1,0.1,0.2c0,0.1,0,0.2,0,0.4c0.1,0.3,0,0.9,0.1,1.1c0,0,0,0,0,0.1c0,0,0,0,0,0
				C9.1,41,9,41,9,41.1c-0.1,0-0.1,0.1-0.1,0.2c0,0.2,0,0.3,0,0.4c0,0.8,0,1.7,0,2.5c0,0.4,0,0.8,0,1.2c0.1,0.3,0.1,0.7,0.1,1.1
				c0,0.2,0,0.4,0,0.6c0,0.1,0,0.3,0,0.4c0.1,0.3,0.1,0.7,0.1,1c0,0.2,0,0.5,0,0.6c0,0.3,0,0.6,0,0.9c0.1,0.3,0,0.8,0,1.1
				c0,0.1,0,0.3,0,0.4c0,0.4,0,1.1-0.1,1.6c0,0.2,0,0.3,0,0.5c-0.2,0.6-0.4,1.3-0.4,2c-0.1,0.1-0.2,0.2-0.2,0.2
				C8,55.9,7.8,56,7.6,56.1c0.1,0.1,0.1,0.1,0.2,0.2c0.1,0.1,0.8,0.2,1.1,0.1c0.4-0.1,0.5-0.1,0.9,0c0.3,0,0.7,0,1,0
				c0.2,0,0.4,0,0.6,0c0,0,0.1,0,0.2,0c0.3-0.1,0.4-0.4,0.7-0.5c0.2,0,0.4,0.2,0.5,0.2c0.2,0,0.4-0.1,0.5-0.1c0.5-0.1,1-0.2,1.6-0.3
				c0.1-0.1,0.1-0.3,0.2-0.4c0.1-0.2,0.3-0.4,0.5-0.5c0.4-0.3,0.9-0.6,1.4-0.9c0.2-0.1,0.4-0.2,0.6-0.3c0.1,0,0.2-0.1,0.3-0.1
				c0,0,0-0.3,0-0.5c0.1-0.4,0.2-0.8,0.3-1.2c0.4-1.1,1.5-2.1,1.2-3.7c-0.1-0.3,0-0.9-0.1-1.1c0-0.2,0.3-0.5,0.4-0.7
				c0.1-0.1,0.1-0.4,0.1-0.6C19.7,45.7,19.7,45.4,19.6,45.3z M15.9,47.9c0,0.3-0.1,0.5-0.1,0.8c-0.1,0.2-0.2,0.4-0.3,0.7
				c0,0.5-0.1,1-0.1,1.5c-0.1,0.3-0.3,0.5-0.5,0.7c-0.2,0.3-0.5,0.5-0.7,0.7c-0.1,0.1-0.2,0.2-0.3,0.3c-0.1,0-0.1,0-0.2,0
				c-0.1,0-0.2,0.2-0.3,0.2c-0.2,0.1-0.3,0.3-0.5,0.4c-0.1,0-0.3,0.2-0.5,0.1c-0.1,0-0.2,0-0.3,0c0.2-0.4,0.4-0.8,0.5-1.2
				c0-0.3,0-0.6,0-0.9c0-0.2,0-0.7,0-0.8c0-0.3,0.1-1.1-0.1-1.2c0.1-0.4,0.1-0.6,0.4-0.8c0-0.3,0-0.7,0.1-0.9c0-0.9,0-1.8,0-2.7
				c0-0.5,0.1-1.2-0.2-1.4c0-0.2,0-0.3,0-0.5c0-0.1,0.2-0.2,0.3-0.3c0-0.2,0-0.3,0.1-0.4c0.1-0.4,0.1-0.7,0-1.1
				c-0.1-0.2,0-0.4,0-0.6c-0.1-0.3,0.1-0.8,0-0.9c0-0.1,0-0.1,0-0.1c0,0,0.1,0,0.1,0c0-0.9,0-1.8,0.1-2.7c0.2,0,0.3,0.3,0.4,0.4
				c0.3,0.3,0.6,0.7,1,0.9c0.2,0.1,0.5,0.2,0.7,0.4c0.2,0.4,0.1,1.1,0.4,1.4c0,0.1-0.1,0.1-0.1,0.1c0,0.1,0.1,0.2,0.1,0.3
				c0,0.1,0,0.3,0,0.4c0.1,0.5,0.1,1.4-0.2,1.7c0.1,0.3,0.3,0.6,0.4,0.9c0.1,0.2,0,0.6,0.1,0.8c0,0.2-0.1,0.1-0.2,0.2
				c0,0.1-0.1,0.2-0.1,0.3c-0.1,0.4,0.2,0.9,0.3,1.1c0,0.1,0,0.2,0,0.3c0,0.1,0,0.1-0.1,0.2c0,0,0,0.1,0,0.1c0,0,0.1,0,0.1,0
				C16.2,46.9,16.1,47.4,15.9,47.9z M15.9,28.8c-0.1,0.2,0.2,0.7,0.2,0.8c0,0.1-0.1,0.3-0.1,0.4c-0.1,0.3-0.1,0.6-0.2,1
				c0,0.1,0,0.4,0,0.5c0,0.2,0.1,0.5,0,0.6c-0.2,0.1-0.6,0.1-0.8,0.2c0,0,0,0,0,0.1c-0.1,0.1-0.3,0.2-0.4,0.4
				c-0.2,0.2-0.3,1-0.6,1.1c0,0-0.2,0-0.3,0c-0.2-0.1-0.3-0.2-0.5,0c0,0,0,0,0,0c0-1.3,0-2.5,0-3.8c0-0.5,0-0.9,0-1.4
				c0-0.1,0.1-0.2,0.1-0.3c0,0,0.1-0.1,0.1-0.1c0.1-0.1,0-0.3,0.1-0.4c0.1-0.1,0.2-0.1,0.2-0.1c0.1,0,0.1,0.1,0.2,0.1
				c0.1,0,0.4,0,0.5-0.1c0.3-0.1,0.4,0,0.6,0c0,0.1,0.1,0.2,0.1,0.3c0.2,0.1,0.5,0.2,0.7,0.3c0.1,0,0.3,0,0.4,0c0,0,0,0,0.1,0
				C16.2,28.5,15.9,28.6,15.9,28.8z"/>
		</g>
	</g>
	<path class="st11" d="M40.2,40.4c3.7,0,6.8-3,6.9-6.7h0V21.9l0,0c0-3.8-3.1-6.9-6.9-6.9c-3.8,0-6.9,3.1-6.9,6.9h0v11.8h0
		C33.4,37.4,36.4,40.4,40.2,40.4z M62.2,9.7c-4.3,0-7.2,3-10.8,4.7c-0.3,0.1-0.5,0.2-0.8,0.4v18.9h0c-0.1,5.6-4.7,10.2-10.3,10.2
		c-5.7,0-10.4-4.6-10.4-10.4c0,0,0,0,0-0.1h0V14.8c-0.3-0.1-0.5-0.2-0.8-0.4c-3.6-1.8-6.6-4.7-10.9-4.7c-7.3,0-12.5,7.4-10,14.3
		c1.1,3,3.3,4.7,5.8,6.3c3.1,2,5.9,4.4,8.2,7.3c3.4,4.2,5.7,9.3,6.8,14.7c0.5,2.5,0.8,5.9,1,8.2c0.5,5.4,4.2,9.8,10.2,9.8
		c6,0,9.7-4.4,10.2-9.8c0.2-2.3,0.5-5.7,1.1-8.2c1.1-5.3,3.4-10.4,6.8-14.7c2.3-2.9,5.1-5.3,8.2-7.3c2.6-1.6,4.8-3.3,5.8-6.3
		C74.7,17.1,69.4,9.7,62.2,9.7z"/>
</g>
<g id="menu_x5F_icons" class="st0">
	<path class="st11" d="M57.9,71.1H22.1c-1.6,0-2.8-1.3-2.8-2.8V36.4h-6c-1.3,0-2.4-0.8-2.7-2L5.7,17.7c-0.4-1.5,0.4-3.1,1.9-3.5
		C8.2,14,21.9,10,26.2,8.9c0.8-0.2,1.7,0,2.4,0.5c0.7,0.5,1.1,1.4,1.1,2.2c0,3.8,8.3,6,10.3,6.1c2,0,3.3-0.4,5.5-1.4
		c2.2-0.9,4.7-2.5,4.7-4.7c0-0.9,0.4-1.7,1.1-2.2c0.7-0.5,1.6-0.7,2.4-0.5c4.3,1,18,5.1,18.6,5.2c1.5,0.4,2.4,2,1.9,3.5l-4.9,16.7
		c-0.4,1.2-1.5,2-2.7,2h-6v31.9C60.7,69.8,59.4,71.1,57.9,71.1z M25,65.4H55V33.6c0-1.6,1.3-2.8,2.8-2.8h6.7L68,18.8
		c-3.3-1-9-2.6-12.8-3.7c-1,2.2-3.1,4.6-7.5,6.5c-3.6,1.5-7.1,1.7-7.2,1.7c-0.3,0-0.5,0-0.8,0c-0.1,0-3.7-0.2-7.2-1.7
		c-4.4-1.9-6.6-4.2-7.5-6.5c-3.8,1-9.5,2.7-12.8,3.7l3.5,11.9h6.7c1.6,0,2.8,1.3,2.8,2.8V65.4z"/>
	<g>
		<path class="st19" d="M65.5,64.3H14.2c-4.7,0-8.6-4-8.6-8.9V24.8c-0.2-2.3,0.5-4.5,2.1-6.2c1.6-1.8,4-2.9,6.5-2.9h51.3
			c4.9,0,8.9,4,8.9,8.9v30.8C74.4,60.3,70.4,64.3,65.5,64.3z M14.2,23.3c-0.5,0-0.7,0.2-0.8,0.3c-0.2,0.2-0.2,0.4-0.2,0.5
			c0,0.1,0,0.3,0,0.4v30.8c0,0.5,0.3,1.3,0.9,1.3h51.3c0.7,0,1.3-0.6,1.3-1.3V24.6c0-0.7-0.6-1.3-1.3-1.3H14.2z"/>
		<rect x="10.7" y="33.1" class="st19" width="62.1" height="7.6"/>
	</g>
	<g>
		<path class="st19" d="M40,14.5c14.1,0,25.5,11.5,25.5,25.5S54.1,65.5,40,65.5c-14.1,0-25.5-11.5-25.5-25.5S25.9,14.5,40,14.5
			 M40,9.1C22.9,9.1,9.1,22.9,9.1,40S22.9,70.9,40,70.9S70.9,57.1,70.9,40C70.9,22.9,57.1,9.1,40,9.1L40,9.1z"/>
		<path class="st19" d="M52.3,42.7H27.7c-1.5,0-2.7-1.2-2.7-2.7s1.2-2.7,2.7-2.7h24.5c1.5,0,2.7,1.2,2.7,2.7S53.8,42.7,52.3,42.7z"
			/>
		<path class="st19" d="M40,55L40,55c-1.5,0-2.7-1.2-2.7-2.7V27.7c0-1.5,1.2-2.7,2.7-2.7l0,0c1.5,0,2.7,1.2,2.7,2.7v24.5
			C42.7,53.8,41.5,55,40,55z"/>
	</g>
	<g>
		<rect x="10.7" y="56.5" class="st19" width="46" height="8"/>
		<rect x="10.7" y="15.6" class="st19" width="58.6" height="8"/>
		<rect x="10.7" y="29.2" class="st19" width="58.6" height="8"/>
		<rect x="10.7" y="42.8" class="st19" width="58.6" height="8"/>
	</g>
	<g>
		<path class="st19" d="M40,14.5c14.1,0,25.5,11.5,25.5,25.5S54.1,65.5,40,65.5S14.5,54.1,14.5,40S25.9,14.5,40,14.5 M40,9.1
			C22.9,9.1,9.1,22.9,9.1,40S22.9,70.9,40,70.9S70.9,57.1,70.9,40S57.1,9.1,40,9.1L40,9.1z"/>
		<path class="st19" d="M36.3,45.1v-0.4c0-4.9,1.3-6,8.2-6.8c3.5-0.4,4.8-1.4,4.8-3.8c0-1.5-0.5-2.5-1.4-3c-1-0.6-3.1-0.8-6.9-0.8
			c-7.7,0-8.5,0.5-8.5,4.6v0.9h-5.7V35c0-4.2,0.4-5.7,2-7.1c1.6-1.5,4.6-2,12.1-2c7.8,0,10.7,0.6,12.5,2.5c1.1,1.2,1.5,2.8,1.5,5.8
			c0,3.3-0.7,5.2-2.3,6.4c-1.2,0.8-3.7,1.5-7.2,1.9c-2.9,0.4-3.4,0.8-3.4,2.6H36.3z M42.2,55.5H36v-6.2h6.2V55.5z"/>
	</g>
	<g>
		<path class="st19" d="M45,69.5c-1.9,0-3.6-0.7-5-2.1L10.8,38.3c-0.5-0.5-0.7-1.1-0.7-1.7v-19c0-3.9,3.2-7,7-7h19.8
			c0.7,0,1.3,0.3,1.7,0.7l29.2,29.2c1.3,1.3,2.1,3.1,2.1,5c0,1.9-0.7,3.6-2.1,5c0,0,0,0,0,0L49.9,67.5C48.6,68.8,46.9,69.5,45,69.5z
			 M15,35.5L43.5,64c0.4,0.4,0.9,0.6,1.5,0.6c0.6,0,1.1-0.2,1.5-0.6c0,0,0,0,0,0l17.9-17.1c0.4-0.4,0.6-0.9,0.6-1.5
			c0-0.6-0.2-1.1-0.6-1.5L35.9,15.4H17.1c-1.2,0-2.1,0.9-2.1,2.1V35.5z"/>
		<circle class="st19" cx="27" cy="27.4" r="4.6"/>
	</g>
	<g>
		<path class="st19" d="M54.8,70l-19.2-3.7c-3-0.6-5.1-3.5-4.5-6.6l8.7-45c0.6-2.9,3.5-4.9,6.6-4.3l19.1,3.7
			c3.1,0.3,5.2,3.3,4.6,6.4l-8.7,45C60.8,68.6,57.8,70.6,54.8,70z M45.5,15.2c-0.3-0.1-0.8,0.1-0.9,0.4l-8.7,45
			c-0.1,0.4,0.2,0.8,0.6,0.9l19.2,3.7c0.4,0.1,0.9-0.2,0.9-0.6l8.7-45c0.1-0.3-0.1-0.6-0.3-0.7c-0.1,0-0.2,0-0.3,0L45.5,15.2z"/>
		<path class="st19" d="M36.6,63.5l-7,2.2c-0.4,0.1-0.9-0.1-1-0.5L14.7,21.5c-0.1-0.4,0.3-0.7,0.6-0.8l18.6-5.9
			c0.1,0,0.2-0.1,0.3-0.1c0.2-0.1,0.5,0.1,0.6,0.4L38.9,28l0.3-2.9l3.7-0.2l-3.6-11.3c-1-3-4.2-4.6-7.1-3.4l-18.5,5.9
			c-3,0.9-4.6,4-3.7,6.9L24,66.6c0.9,3,4.1,4.6,7.1,3.7l14.9-4.7L36.6,63.5z"/>
	</g>
	<g>
		<path class="st19" d="M47.6,51.8c-10.8,0-19.7-8.8-19.7-19.7c0-10.8,8.8-19.7,19.7-19.7c10.8,0,19.7,8.8,19.7,19.7
			S58.4,51.8,47.6,51.8z M47.6,17.3c-8.2,0-14.9,6.7-14.9,14.9c0,8.2,6.7,14.9,14.9,14.9s14.9-6.7,14.9-14.9
			C62.4,24,55.8,17.3,47.6,17.3z"/>
		<path class="st19" d="M15.2,67.5c-0.6,0-1.2-0.2-1.7-0.7c-0.9-0.9-0.9-2.5,0-3.4l18.6-18.6c0.9-0.9,2.5-0.9,3.4,0
			c0.9,0.9,0.9,2.5,0,3.4L16.9,66.8C16.4,67.3,15.8,67.5,15.2,67.5z"/>
	</g>
	<g>
		<path class="st19" d="M17.4,28.5c-2.1,0-3.8,1.8-3.8,3.8l0,0v6.5V42v6.5l0,0c0,2.1,1.7,3.8,3.8,3.8c2.1,0,3.8-1.8,3.8-3.8l0,0V42
			v-3.1v-6.5l0,0C21.3,30.2,19.5,28.5,17.4,28.5z"/>
		<path class="st19" d="M66.4,32.3c0-2.1-1.7-3.8-3.8-3.8c-2.1,0-3.8,1.8-3.8,3.8l0,0v6.5V42v6.5l0,0c0,2.1,1.7,3.8,3.8,3.8
			c2.1,0,3.8-1.8,3.8-3.8l0,0V42v-3.1V32.3L66.4,32.3z"/>
		<path class="st19" d="M22.9,29.1h-0.2v25.4c0,2.1,1.8,3.8,3.8,3.8h3.2v2.3v6.5l0,0c0,2.1,1.7,3.8,3.8,3.8c2.2,0,3.8-1.8,3.8-3.8
			l0,0v-6.5v-2.3h5.2v2.3v6.5c0,2.1,1.7,3.8,3.8,3.8c2.1,0,3.8-1.8,3.8-3.8v-6.5v-2.3h3.2c2.1,0,3.8-1.8,3.8-3.8V29.1h-0.1H22.9z"/>
		<path class="st19" d="M57.3,27.8V26c-0.1-0.5-0.1-1-0.3-1.6c-0.9-4.5-4.1-8.3-8.4-10.5L51.3,9c0.1-0.3,0.1-0.7-0.3-0.9
			c-0.3-0.1-0.7-0.1-0.9,0.3l-2.7,5c-2.2-1-4.7-1.6-7.4-1.6s-5.3,0.5-7.6,1.6l-2.7-5c-0.1-0.3-0.5-0.4-0.9-0.3
			c-0.3,0.1-0.4,0.5-0.3,0.9l2.6,4.9c-4.1,2.2-7.2,5.7-8.2,10c-0.3,1.1-0.4,2.2-0.4,3.4c0,0.2,0,0.3,0,0.5L57.3,27.8L57.3,27.8z
			 M47.9,18.4c0.9,0,1.6,0.7,1.6,1.6c0,0.9-0.7,1.6-1.6,1.6s-1.6-0.7-1.6-1.6C46.3,19.1,47,18.4,47.9,18.4z M32.1,18.4
			c0.9,0,1.6,0.7,1.6,1.6c0,0.9-0.7,1.6-1.6,1.6s-1.6-0.7-1.6-1.6C30.5,19.1,31.2,18.4,32.1,18.4z"/>
	</g>
	<g>
		<path class="st19" d="M52.1,9.5c0.4,2,0,4-0.6,5.7c-0.6,1.6-1.5,3.1-2.5,4.2c-2,2.4-4.8,4.4-9,4.1c-0.3-4,1.2-7.1,3.3-9.4
			C45.2,11.8,48.5,9.9,52.1,9.5z"/>
		<path class="st19" d="M63.2,30.2c-3.9,2.5-7.1,6.3-6.5,12.7c0.5,5.8,3.9,9.1,8,11.2c-1.1,3.3-2.3,5.8-4,8.4
			c-1.6,2.4-3.4,5-5.8,6.5c-1.6,1-3.8,1.3-5.9,0.8c-2-0.5-3.7-1.4-5.5-1.8c-2.4-0.5-4.6-0.1-6.4,0.5c-2.2,0.7-3.9,2-6.7,1.7
			c-2.8-0.3-5.2-2.8-6.6-4.6c-3.3-4.1-5.9-8.9-7.4-14.7c-0.8-3-1.4-6.1-1.2-9.9c0.3-6.9,3.3-11.8,7.7-14.5c2.3-1.4,5.3-2.5,8.8-2
			c1.5,0.2,2.9,0.7,4.3,1.2c1.1,0.4,3,1.4,4.4,1.3c1.6-0.1,3.3-1,4.8-1.6c1.6-0.6,3.3-1.2,5.2-1.3c3.1-0.2,5.7,0.7,7.8,1.6
			C60.4,26.8,62,28.3,63.2,30.2z"/>
	</g>
	<g>
		<path class="st19" d="M23.8,11h15.8c0,0,2.5,0.1,3.2,0.9c1,0.8,0.9,1.9,0.9,1.9v7.4c0,0,0,0.3,0,0.5c12.7,0,12.7,10.2,12.7,10.2
			v27.5c0,0,0,9.7-15.3,9.7S26.2,58.9,26.2,58.9v-27c0,0-0.1-10.2,13.2-10.2c0-0.2,0-0.5,0-0.5v-4.8c0,0,0.1-1-0.5-1.4
			c-0.6-0.3-2-0.2-2-0.2H23.7V11H23.8z M41.6,40.5c2.1,0,2.1-1.9,2.1-1.9v-8.3c0,0,0.2-2-2.2-2c-2.1,0-2.1,1.9-2.1,1.9v8.4
			C39.5,38.7,39.4,40.5,41.6,40.5z"/>
	</g>
	<path class="st11" d="M65,27c-8-13.2-20.2-4-20.2-4c-0.8,0.6-2.2,1.1-3.2,1.1h-3.3c-1,0-2.4-0.5-3.2-1.1c0,0-12.1-9.2-20.2,4
		c-8.1,13.2-4.8,27.6-4.8,27.6c0.6,3.5,2.4,5.9,6,5.6c3.5-0.3,11.1-9.5,11.1-9.5c0.6-0.8,2-1.3,2.9-1.3h19.5c1,0,2.3,0.6,2.9,1.3
		c0,0,7.7,9.2,11.1,9.5c3.5,0.3,5.4-2.1,6-5.6C69.8,54.6,73,40.2,65,27z M33.8,32.3v4.1v0.4h-0.4h-4.2v4.2v0.4h-0.4h-4.2h-0.4v-0.4
		v-4.2h-4.2h-0.3v-0.4v-4.1v-0.4h0.4h4.2v-4.2v-0.4h0.4h4.2h0.4v0.4v4.2h4.2h0.4L33.8,32.3L33.8,32.3z M51.8,42.3
		c-1.8,0-3.3-1.5-3.3-3.3c0-1.8,1.5-3.3,3.3-3.3s3.3,1.5,3.3,3.3C55.1,40.9,53.7,42.3,51.8,42.3z M51.8,33.2c-1.8,0-3.3-1.5-3.3-3.3
		c0-1.8,1.5-3.3,3.3-3.3s3.3,1.5,3.3,3.3C55.1,31.7,53.7,33.2,51.8,33.2z M60,38.1c-1.8,0-3.3-1.5-3.3-3.3s1.5-3.3,3.3-3.3
		s3.3,1.5,3.3,3.3C63.4,36.6,61.9,38.1,60,38.1z"/>
	<g>
		<path class="st19" d="M34.3,9.1v33.6l7.4,2.4V16.9c0-1.3,0.6-2.2,1.5-1.9c1.2,0.4,1.5,1.6,1.5,2.9v11.3c4.7,2.3,8.2,0,8.2-6.1
			c0-6.2-2.1-8.9-8.4-11.1C42,11.1,37.5,9.7,34.3,9.1"/>
		<path class="st19" d="M43.1,40.2L55,35.8c1.3-0.5,1.6-1.2,0.5-1.6c-1.1-0.4-3.1-0.3-4.4,0.2l-8,2.9v-4.6l0.4-0.1
			c0,0,2.3-0.8,5.5-1.2c3.2-0.4,7.2,0.1,10.3,1.3c3.5,1.1,3.9,2.8,3,3.9c-0.8,1.1-3,2-3,2l-16.2,6V40.2L43.1,40.2z"/>
		<path class="st19" d="M20.7,39.8c-3.6-1.1-4.2-3.2-2.5-4.4c1.6-1.1,4.1-2,4.1-2l10.6-3.9v4.4l-7.6,2.8c-1.3,0.5-1.6,1.2-0.5,1.6
			c1.1,0.4,3.1,0.3,4.4-0.2l3.7-1.3v3.9c-0.2,0.1-0.5,0.1-0.7,0.1C28.4,41.3,24.6,41.1,20.7,39.8"/>
		<path class="st19" d="M56.1,60c-0.1-0.1-0.1-0.2,0-0.2c1.3-1.1,1.9-2.6,1.9-4.5c0-3.3-2-5.8-6.1-5.8H26.4c-0.1,0-0.1,0.1-0.1,0.1
			v2c0,0.1,0.1,0.1,0.1,0.1h24c2,0,3,1.5,3,3.5s-1,3.5-3,3.5l0,0l0,0h-24c-0.1,0-0.1,0.1-0.1,0.1v2c0,0.1,0.1,0.1,0.1,0.1h24
			c2.7,0,3,2.6,3,3.9v0.3c0,2-1,3.5-3,3.5h-24c-0.1,0-0.1,0.1-0.1,0.1v2c0,0.1,0.1,0.1,0.1,0.1h25.5c4.1,0,6.1-2.7,6.1-5.8V65
			C58,63,57.4,61.1,56.1,60"/>
	</g>
	<g>
		<path class="st19" d="M34.3,9.6v33.6l7.4,2.4V17.4c0-1.3,0.6-2.2,1.5-1.9c1.2,0.4,1.5,1.6,1.5,2.9v11.3c4.7,2.3,8.2,0,8.2-6.1
			c0-6.2-2.1-8.9-8.4-11.1C42,11.6,37.5,10.2,34.3,9.6"/>
		<path class="st19" d="M43.1,40.7L55,36.4c1.3-0.5,1.6-1.2,0.5-1.6c-1.1-0.4-3.1-0.3-4.4,0.2l-8,2.9v-4.6l0.4-0.1
			c0,0,2.3-0.8,5.5-1.2c3.2-0.4,7.2,0.1,10.3,1.3c3.5,1.1,3.9,2.8,3,3.9c-0.9,1.1-3.1,2-3.1,2l-16.2,6L43.1,40.7L43.1,40.7z"/>
		<path class="st19" d="M20.7,40.3c-3.6-1.1-4.2-3.2-2.5-4.4c1.6-1.1,4.1-2,4.1-2L32.9,30v4.4l-7.6,2.8c-1.3,0.5-1.6,1.2-0.5,1.6
			c1.1,0.4,3.1,0.3,4.4-0.2l3.7-1.3v3.9c-0.2,0.1-0.5,0.1-0.7,0.1C28.4,41.9,24.6,41.6,20.7,40.3"/>
		<path class="st19" d="M59.9,65.4h-4.7h0.1c-0.1,0-0.1-0.1-0.1-0.1V49.9c0-2.4-1.6-3.2-3.9-1.7L23.7,65.1c-1.1,0.6-1.5,1.4-1.2,2
			c0.2,0.5,0.8,0.8,2,0.8h25.6c0.1,0,0.1,0.1,0.1,0.1v2.2c0,0.1,0.1,0.1,0.1,0.1H55c0.1,0,0.1-0.1,0.1-0.1v-2.1
			c0-0.1,0.1-0.1,0.1-0.1h4.6c0.1,0,0.1-0.1,0.1-0.1v-2.1C60.1,65.5,60,65.4,59.9,65.4z M50.3,65.3c0,0.1-0.1,0.1-0.1,0.1H28.6
			c-0.1,0-0.3-0.1-0.3-0.1c0-0.1,0-0.1,0.1-0.3l21.3-13.1c0.1-0.1,0.4-0.1,0.4,0.2V65.3z"/>
	</g>
	<g>
		<polygon class="st19" points="38.2,62.4 66.9,66.4 66.9,41.4 38.2,41.4 		"/>
		<polygon class="st19" points="66.9,37.9 66.9,12.5 38.2,16.8 38.2,37.9 		"/>
		<polygon class="st19" points="13.1,41.4 13.1,58.9 34.6,61.9 34.6,41.4 		"/>
		<polygon class="st19" points="34.6,17.3 13.1,20.5 13.1,37.9 34.6,37.9 		"/>
	</g>
	<g>
		<g class="st4">
			<path class="st11" d="M46.2,21.4c-0.1,0.1-0.1,0.3-0.3,0.4c2.9,3.4,12,14.6,11.2,22.3c2.9-3.7,4.7-8.3,4.7-13.3
				c0-6.2-2.6-11.7-6.9-15.6C51.4,15.9,48,18.9,46.2,21.4z"/>
			<path class="st11" d="M28.6,12.5c4.6-0.1,8.8,1.9,11.4,3.5c2.6-1.6,6.8-3.7,11.4-3.5l0,0c-3.3-2-7.2-3.2-11.4-3.2
				C35.8,9.3,31.9,10.5,28.6,12.5L28.6,12.5z"/>
			<path class="st11" d="M42.4,28.7L42.4,28.7c-0.8-0.6-1.5-1.3-2.4-2c-0.8,0.7-1.6,1.3-2.4,2l0,0C32,33.7,24.8,40.1,24.9,46.3
				c3.9,3.7,9.2,6,15.1,6s11.1-2.3,15.1-6C55.1,40.2,48,33.7,42.4,28.7z"/>
			<path class="st11" d="M34.1,21.8c-0.1-0.1-0.1-0.3-0.3-0.4c-1.9-2.5-5.4-5.5-8.8-6.2c-4.2,3.9-6.9,9.5-6.9,15.6
				c0,5,1.7,9.6,4.7,13.3C22.1,36.4,31.3,25.3,34.1,21.8z"/>
		</g>
		<polygon id="polygon3015_1_" class="st19" points="46,55.6 46,67.6 37.1,55.6 35.7,55.6 35.7,70.2 37.3,70.2 37.3,58.4 46,70.2
			47.7,70.2 47.7,55.6 		"/>
		<path id="path3017_1_" class="st19" d="M27.1,55.2c-4.2,0-7,3.1-7,7.7c0,4.5,2.9,7.7,7,7.7c4.2,0,7-3.1,7-7.7S31.3,55.2,27.1,55.2
			 M27.1,69.1c-3.1,0-5.4-2.5-5.4-6.1c0-3.6,2.2-6.1,5.4-6.1s5.4,2.5,5.4,6.1C32.5,66.5,30.3,69.1,27.1,69.1"/>
		<polygon id="polygon3019_1_" class="st19" points="51.2,68.8 51.2,63.4 59.3,63.4 59.3,62 51.2,62 51.2,57 59.9,57 59.9,55.6
			49.5,55.6 49.5,70.2 59.9,70.2 59.9,68.8 		"/>
	</g>
	<g class="st4">
		<g>
			<path class="st31" d="M46.2,21.1c-0.1,0.1-0.1,0.3-0.3,0.4C48.8,25,58,36.2,57.2,43.9c2.9-3.7,4.7-8.3,4.7-13.4
				c0-6.2-2.6-11.8-7-15.7C51.6,15.5,48.1,18.6,46.2,21.1z"/>
			<path class="st31" d="M28.6,12.3c4.7-0.1,8.9,1.9,11.5,3.5c2.6-1.6,6.8-3.7,11.5-3.5l0,0c-3.3-2-7.3-3.2-11.5-3.2
				C35.8,9.1,31.9,10.2,28.6,12.3L28.6,12.3z"/>
			<path class="st31" d="M42.5,28.5L42.5,28.5c-0.8-0.6-1.6-1.3-2.4-2c-0.8,0.7-1.7,1.3-2.4,2l0,0C32,33.5,24.8,40,24.8,46.1
				c4,3.8,9.3,6,15.2,6c5.9,0,11.2-2.3,15.2-6C55.3,40,48.1,33.5,42.5,28.5z"/>
			<path class="st31" d="M34.2,21.5c-0.1-0.1-0.1-0.3-0.3-0.4c-1.9-2.5-5.4-5.6-8.8-6.2c-4.2,4-7,9.5-7,15.7c0,5,1.7,9.7,4.7,13.3
				C22,36.2,31.3,25,34.2,21.5z"/>
		</g>
		<g>
			<path class="st31" d="M42.6,55.8c1.4,0.4,2.4,1.2,2.6,3.3h1.7c-0.1-2.1-1.3-3.7-3.3-4.5c-2.2-0.6-4.2-0.1-6,1.5
				c-1.1,1.3-1.5,2.8-1.5,4.4c-0.1,1.7,0.3,3.3,0.3,4.8c0,0,0,0,0,0.1c0,1.5,0.3,2.9,1.4,4c1.1,1.1,2.3,1.7,3.9,1.7
				c1.5,0,2.9-0.6,3.9-1.7c1.1-1.1,1.6-2.4,1.6-4c0-1.6-0.6-2.9-1.7-4c-1.1-1.1-2.4-1.7-4-1.7c-1.5,0-2.9,0.6-4,1.7
				c-0.1,0.1-0.1,0.1-0.2,0.2c0.1-1.9,0.7-3.4,1.6-4.5C39.7,55.9,40.5,55.5,42.6,55.8L42.6,55.8z M44.2,62.4
				c0.8,0.8,1.2,1.8,1.2,2.9c0,1.1-0.4,2.2-1.2,2.9c-0.8,0.8-1.8,1.2-2.9,1.2c-1.1,0-2.2-0.4-2.9-1.2c-0.8-0.8-1.2-1.8-1.2-2.9
				c0-1.1,0.4-2.2,1.2-2.9c0.8-0.8,1.8-1.2,2.9-1.2C42.4,61.2,43.5,61.6,44.2,62.4L44.2,62.4z"/>
			<path class="st31" d="M54.3,54.3c-1.7,0-3.1,0.8-4.2,2.4c-1.2,1.6-1.7,3.5-1.7,5.8c0,2.3,0.6,4.3,1.7,5.8
				c1.2,1.6,2.6,2.4,4.2,2.4c1.7,0,3.1-0.8,4.2-2.4s1.7-3.5,1.7-5.8c0-2.3-0.6-4.3-1.7-5.8C57.3,55,55.9,54.3,54.3,54.3L54.3,54.3z
				 M51.2,57.7c0.8-1.3,1.9-1.9,3.1-1.9s2.3,0.6,3.2,1.9c0.9,1.3,1.3,2.9,1.3,4.8s-0.4,3.5-1.3,4.9c-0.9,1.3-1.9,1.9-3.2,1.9
				c-1.3,0-2.3-0.6-3.1-1.9c-0.8-1.3-1.3-2.9-1.3-4.9C49.9,60.6,50.4,59,51.2,57.7L51.2,57.7z"/>
			<path class="st31" d="M23.8,59.1H25c0,0,0-0.6,0-1.1c0.1-0.5,0.4-1.1,1.1-1.6c0.7-0.6,1.6-0.8,2.6-0.8c1,0,2,0.3,2.7,0.8
				c0.8,0.6,1.1,1.3,1.1,2.1c0,0.8-0.4,1.5-1.1,2.1c-0.8,0.6-1.5,0.8-2.6,0.8c-0.4,0-0.3,0-1,0v1.6c0.7-0.1,1-0.1,1.7-0.1
				c0.6,0,1,0.1,1.3,0.1c0.3,0.1,0.5,0.2,0.6,0.3c0.8,0.8,1.3,1.6,1.3,2.6c0,1-0.4,1.9-1.3,2.5c-0.8,0.6-1.8,1-3,1
				c-1.2,0.1-2.2-0.3-2.9-1c-0.8-0.8-1.2-1.3-1.3-1.9c-0.1-0.6-0.1-1.2,0-1.2h-1.6c0,0-0.1,0.3-0.1,0.4c0,1.4,0.6,2.5,1.7,3.5
				c1.1,1,2.4,1.5,4,1.5s2.9-0.5,4-1.5c1.1-1,1.7-2.2,1.7-3.5c0-1.4-0.6-2.6-1.7-3.5c-0.2-0.1-0.3-0.3-0.6-0.4
				c0.1-0.1,0.3-0.2,0.4-0.3c1-0.8,1.5-1.8,1.5-3c0-1.2-0.5-2.2-1.5-3c-1-0.8-2.2-1.3-3.7-1.3s-2.7,0.4-3.7,1.3
				c-1,0.8-1.3,1.8-1.3,3C23.6,58.6,23.7,58.8,23.8,59.1L23.8,59.1L23.8,59.1z"/>
		</g>
	</g>
</g>
</svg>
