<?xml version="1.0" encoding="utf-8"?>
<!-- Generator: Adobe Illustrator 21.1.0, SVG Export Plug-In . SVG Version: 6.00 Build 0)  -->
<!DOCTYPE svg PUBLIC "-//W3C//DTD SVG 1.1//EN" "http://www.w3.org/Graphics/SVG/1.1/DTD/svg11.dtd">
<svg version="1.1" id="Layer_1" xmlns="http://www.w3.org/2000/svg" xmlns:xlink="http://www.w3.org/1999/xlink" x="0px" y="0px"
	 viewBox="0 0 80 80" style="enable-background:new 0 0 80 80;" xml:space="preserve">
<style type="text/css">
	.st0{display:none;}
	.st1{display:inline;filter:url(#Adobe_OpacityMaskFilter);}
	.st2{filter:url(#Adobe_OpacityMaskFilter_1_);}
	.st3{mask:url(#SVGID_1_);stroke:#000000;stroke-width:4;stroke-miterlimit:10;}
	.st4{display:inline;}
	.st5{fill:#490005;}
	.st6{fill:#D80000;}
	.st7{fill:#F23F00;}
	.st8{display:inline;filter:url(#Adobe_OpacityMaskFilter_2_);}
	.st9{display:inline;mask:url(#SVGID_2_);fill:#E8DCC1;}
	.st10{fill:#418AF2;}
	.st11{fill:#FFFFFF;}
	.st12{display:inline;fill:#36AEEA;}
	.st13{display:inline;fill:#593810;}
	.st14{fill:#FF9C00;}
	.st15{fill:#39CCFF;}
	.st16{display:inline;fill:#2B374C;}
	.st17{display:inline;fill:#F4BF2A;}
	.st18{display:inline;fill:#FFBA0D;}
	.st19{display:inline;fill:#FFFFFF;}
	.st20{display:inline;filter:url(#Adobe_OpacityMaskFilter_3_);}
	.st21{stroke:#000000;stroke-width:4;stroke-miterlimit:10;}
	.st22{display:inline;mask:url(#SVGID_3_);}
	.st23{fill:#3390FF;}
	.st24{display:inline;fill:#CCE1FF;}
	.st25{display:inline;fill-rule:evenodd;clip-rule:evenodd;fill:#FFF7DE;}
	.st26{display:inline;fill:#DD7928;}
	.st27{fill:#1E394F;}
	.st28{fill:#F3BE25;}
	.st29{fill:#79ABCB;}
</style>
<g class="st0">
	<defs>
		<filter id="Adobe_OpacityMaskFilter" filterUnits="userSpaceOnUse" x="1.5" y="0" width="77" height="80">
			<feFlood  style="flood-color:white;flood-opacity:1" result="back"/>
			<feBlend  in="SourceGraphic" in2="back" mode="normal"/>
		</filter>
	</defs>
	<mask maskUnits="userSpaceOnUse" x="1.5" y="0" width="77" height="80" id="SVGID_1_" class="st4">
		<g style="filter:url(#Adobe_OpacityMaskFilter);">
			<defs>
				<filter id="Adobe_OpacityMaskFilter_1_" filterUnits="userSpaceOnUse" x="11.9" y="16.7" width="55.7" height="44.9">
					<feFlood  style="flood-color:white;flood-opacity:1" result="back"/>
					<feBlend  in="SourceGraphic" in2="back" mode="normal"/>
				</filter>
			</defs>
			<mask maskUnits="userSpaceOnUse" x="11.9" y="16.7" width="55.7" height="44.9" id="SVGID_1_">
				<g class="st2">
				</g>
			</mask>
			<path class="st3" d="M62.7,29.9c-2.2-0.9-4.2-2.8-6.8-3.5c2.5,3.5,5.4,7.4,5,13.9c-0.3,5-2.7,8.5-5.3,11.3
				c-2.8,2.9-6.4,5.1-10.3,6.1c-2.3,0.8-4.6,1.2-7,1.3c-7.9,0-16.1-0.5-23.7,0.4c-0.1-0.7-0.2-1.4-0.4-2.1c3.1-0.8,7.3-1.8,7.7-5.4
				c0.2-2,0.2-24.9-0.2-26.6c-0.5-2.3-5-3-7.4-3.5c0-0.8,0.2-1.3,0.2-2.1c5.2-0.7,10.4-0.7,16-1C44.9,18.1,57.3,21,62.7,29.9z
				 M32.5,24.2c-0.7,0.1-0.5,2.4-0.5,3.1c0.1,5.8-0.1,12.6-0.1,18.4c0,1.8-0.5,5.7,0.6,6.6c1.1,0.9,5.3,0.6,7,0.4
				c8.8-0.6,12.7-10.3,9.7-18.8c-1.9-5.5-6.2-9.3-13.3-9.8C35,24,32.7,24.2,32.5,24.2z"/>
			<path d="M61.6,33.7c0,0,1.4,0,2.4-1.2c0,0,9.6,5.2,14.3,6.3s4.6-10,4.6-10l-19.7-6.6l-3.6,2.1l-0.8,4.9L61.6,33.7z"/>
		</g>
	</mask>
	<g class="st4">
		<path class="st5" d="M78.5,38.8c0,0-9-1.9-12.8-8.5c0,0-1.8,3.1-3.7,3.3c0,0,0.5-3.6,2.8-5.2l-2.8-2.7h-6.5c0,0,1.7-5,4-5.4
			c0,0-3.9-1.8-6.5,0.4c0,0-8.4,1.2-1.3-5.4c0,0-10.2-4-11.9-8.4c-1.7,4.4-11.9,8.4-11.9,8.4c7.1,6.6-1.3,5.4-1.3,5.4
			c-2.6-2.2-6.5-0.4-6.5-0.4c2.3,0.4,4,5.4,4,5.4h-6.5l-2.8,2.7c2.3,1.7,2.8,5.2,2.8,5.2c-1.9-0.3-3.7-3.3-3.7-3.3
			c-3.7,6.6-12.8,8.5-12.8,8.5v0c0,0,9,1.9,12.8,8.5c0,0,1.8-3.1,3.7-3.3c0,0-0.5,3.6-2.8,5.2l2.8,2.7h6.5c0,0-1.7,5-4,5.4
			c0,0,3.9,1.8,6.5-0.4c0,0,8.4-1.2,1.3,5.4c0,0,10.2,4,11.9,8.4c1.7-4.4,11.9-8.4,11.9-8.4c-7.1-6.6,1.3-5.4,1.3-5.4
			c2.6,2.2,6.5,0.4,6.5,0.4c-2.3-0.4-4-5.4-4-5.4h6.5l2.8-2.7c-2.3-1.7-2.8-5.2-2.8-5.2c1.9,0.3,3.7,3.3,3.7,3.3
			C69.4,40.8,78.5,38.9,78.5,38.8L78.5,38.8z"/>
		<g>
			<path class="st6" d="M40,0.4c1,6.6,1.6,13.1,2,19.7c0.4,6.6,0.5,13.1,0.5,19.7c0,6.6-0.2,13.1-0.5,19.7c-0.4,6.6-0.9,13.1-2,19.7
				c-1-6.6-1.6-13.1-2-19.7c-0.4-6.6-0.5-13.1-0.5-19.7c0-6.6,0.2-13.1,0.5-19.7C38.5,13.5,39,6.9,40,0.4z"/>
		</g>
		<g>
			<path class="st7" d="M40,0c1,6.7,1.6,13.3,2,20c0.4,6.7,0.5,13.3,0.5,20c0,6.7-0.2,13.3-0.5,20c-0.4,6.7-0.9,13.3-2,20
				c-1-6.7-1.6-13.3-2-20c-0.4-6.7-0.5-13.3-0.5-20c0-6.7,0.2-13.3,0.5-20C38.5,13.3,39,6.7,40,0z"/>
		</g>
		<g>
			<path class="st7" d="M26.3,8.1c1,5.3,1.6,10.6,2,15.8c0.4,5.3,0.5,10.6,0.5,15.8c0,5.3-0.2,10.6-0.5,15.8
				c-0.4,5.3-0.9,10.6-2,15.8c-1-5.3-1.6-10.6-2-15.8C24,50.3,23.8,45,23.8,39.8c0-5.3,0.2-10.6,0.5-15.8
				C24.7,18.6,25.3,13.4,26.3,8.1z"/>
		</g>
		<g>
			<path class="st7" d="M53,8.1c1,5.3,1.6,10.6,2,15.8c0.4,5.3,0.5,10.6,0.5,15.8c0,5.3-0.2,10.6-0.5,15.8c-0.4,5.3-0.9,10.6-2,15.8
				c-1-5.3-1.6-10.6-2-15.8c-0.4-5.3-0.5-10.6-0.5-15.8c0-5.3,0.2-10.6,0.5-15.8C51.4,18.6,52,13.4,53,8.1z"/>
		</g>
	</g>
	<defs>
		<filter id="Adobe_OpacityMaskFilter_2_" filterUnits="userSpaceOnUse" x="14.2" y="19.4" width="48.5" height="40.7">
			<feFlood  style="flood-color:white;flood-opacity:1" result="back"/>
			<feBlend  in="SourceGraphic" in2="back" mode="normal"/>
		</filter>
	</defs>
	<mask maskUnits="userSpaceOnUse" x="14.2" y="19.4" width="48.5" height="40.7" id="SVGID_2_" class="st4">
		<g style="filter:url(#Adobe_OpacityMaskFilter_2_);">
		</g>
	</mask>
	<path class="st9" d="M62.7,30.7c-2-1.4-4.2-2.8-6.8-3.5c2.5,3.5,5.4,7.4,5,13.9c-0.3,5-2.7,8.5-5.3,11.3c-2.8,2.9-6.4,5.1-10.3,6.1
		c-2.3,0.8-4.6,1.2-7,1.3c-7.9,0-16.1-0.5-23.7,0.4c-0.1-0.7-0.2-1.4-0.4-2.1c3.1-0.8,7.3-1.8,7.7-5.4c0.2-2,0.2-24.9-0.2-26.6
		c-0.5-2.3-5-3-7.4-3.5c0-0.8,0.2-1.3,0.2-2.1c5.2-0.7,10.4-0.7,16-1C44.9,18.9,57.3,21.8,62.7,30.7z M32.5,25
		c-0.7,0.1-0.5,2.4-0.5,3.1c0.1,5.8-0.1,12.6-0.1,18.4c0,1.8-0.5,5.7,0.6,6.6c1.1,0.9,5.3,0.6,7,0.4c8.8-0.6,12.7-10.3,9.7-18.8
		c-1.9-5.5-6.2-9.3-13.3-9.8C35,24.8,32.7,25,32.5,25z"/>
</g>
<g class="st0">
	<g class="st4">
		<polygon class="st10" points="63.4,53.5 40,67.1 16.6,53.5 16.6,26.5 40,12.9 63.4,26.5 		"/>
		<polygon class="st11" points="40,10.4 13.8,25.1 13.8,54.6 40,69.4 66.2,54.6 66.2,25.1 		"/>
	</g>
	<path class="st12" d="M18.7,37.6c1.7-14,13.9-17.8,13.9-17.8c-16.3,17.4,3.2,29.8,3.2,29.8l-13.2,2.9C22.7,52.5,18,46.9,18.7,37.6z
		"/>
	<path class="st12" d="M48.4,59.8c-14,5.1-22.2-3.8-22.2-3.8c22.9,5.8,24.5-17.4,24.5-17.4l8.8,10.1C59.5,48.7,57,55.9,48.4,59.8z"
		/>
	<path class="st12" d="M60.9,43.9c-7-22.9-26.7-12-26.7-12l4.2-13.3c0,0,8.4-1.1,16,5.4C63.7,32.1,60.9,43.9,60.9,43.9z"/>
</g>
<g class="st0">
	<circle class="st13" cx="40.1" cy="40" r="20.8"/>
	<g class="st4">
		<path class="st14" d="M61.7,48.4L75.8,40l-14.1-8.4c-0.7-1.8-1.6-3.4-2.7-5l3.2-8.9l-8.8,3.2c-1.5-1.1-3.2-2-5-2.7L40,4.2
			l-8.4,14.1c-1.8,0.7-3.4,1.6-5,2.7l-8.8-3.2l3.2,8.8c-1.1,1.5-2,3.2-2.7,5L4.2,40l14.1,8.4c0.7,1.8,1.6,3.4,2.7,5l-3.2,8.9
			l8.8-3.2c1.5,1.1,3.2,2,5,2.7L40,75.8l8.4-14.1c1.8-0.7,3.4-1.6,5-2.7l8.9,3.2l-3.2-8.8C60.2,51.9,61.1,50.2,61.7,48.4z M40,59.3
			c-10.6,0-19.3-8.6-19.3-19.3S29.4,20.7,40,20.7S59.3,29.4,59.3,40l0,0C59.3,50.6,50.6,59.3,40,59.3L40,59.3L40,59.3z"/>
		<path class="st15" d="M52.9,39.5c0.1-0.9-0.7-1.8-0.8-2.8c0-0.5-0.2-1-0.4-1.5c-0.2-0.5-0.2-1-0.3-1.4h-0.1
			c0.6-1.2-1.1-2.6-1.9-3.5c-1-1-1.5-2.3-3-2.8c-0.7-0.3-1.4-0.7-2.2-1c-0.7-0.3-1.5-0.5-2.1-0.7c-0.7-0.3-1.2-0.9-2-0.8
			c-0.8,0.1-1.2,0.6-2.1,0.4c-1.8-0.6-3.1,0.4-4.5,1.4c-0.7,0.5-1.4,0.9-2,1.4c-0.2,0.2-0.4,0.5-0.6,0.8c-0.2,0.3-0.6,0.5-0.8,0.9
			c-0.4,0.6-1,1-1.6,1.4c-0.3,0.2-0.5,0.6-0.9,0.8c-0.5,0.3-0.6,0.2-0.6,0.8c0,0.8,0.4,1.4,0.4,2.1c0,0.4,0,0.8,0,1.2
			c0.1,0.4,0.2,0.7,0.3,1.1c0.2,0.7,0,1.5,0.3,2.1c0.4,0.6,0.8,1.3,1.3,1.8c0.5,0.6,1,1.3,1.5,2c0.3,0.4,1.4,1,1.4,1.6
			c0.8,0.2,1,1.1,1.7,1.1c0.4-0.1,0.8-0.1,1.1,0c0.4,0.1,0.7,0.2,1.1,0.3c0.7,0,1.2-0.6,1.9-0.8s1.5,0,2.2-0.3
			c1.3-0.8,2.1-2.2,2.2-3.7c0-0.8-0.2-1.6-0.7-2.2c-0.4-0.7-0.1-1.5-0.8-1.9c-0.7-0.3-1.5-0.6-2.4-0.6c-0.8-0.3-1.6-0.2-2.4,0.1
			c-1.3,0.9,1.6,3,0.1,3.7c-1.7,0.7-2.6-1.2-3-2.5c-0.2-0.8-0.2-1.7,0-2.5c0-0.4,0.1-0.7,0.2-1.1c0.2-0.3,0.6-0.5,0.9-0.6
			c0.6-0.4,1.1-1,1.7-1.4c0.6-0.4,1.4-0.7,2.1-0.9c0.9-0.2,1.8-0.2,2.7-0.2c0.4,0,0.8,0.1,1.2,0.1c0.4,0,0.7-0.2,1.1-0.2
			c0.6,0,0.4,0.2,0.4,0.7c0,0.3,0.2,0.6,0.4,0.9c0.5,0.6,0.9,1.2,1.4,1.8c1,1.2,0.8,3.1,0.7,4.6c-0.1,0.8,0,1.6,0.2,2.4
			c0.3,0.9-0.4,0.9-1,1.4c-0.4,0.6-0.8,1.2-1.1,1.8c-0.5,0.6-1,1.1-1.6,1.5c-0.5,0.5-1.1,0.9-1.6,1.3c-0.7,0.4-1.4,0.8-2.1,1.1
			c-0.8,0.3-1.7,0.5-2.5,0.7c-0.4,0.1-0.8,0.2-1.2,0.4c-0.3,0.2-0.5,0.6-0.9,0.8c-1,0.6-2.1,0.5-3.2,1c-0.6,0.3-2.6,0.4-2.7,1.1
			h-0.1c0.3,0.6,0.9,1.1,1.6,1.2c0.7,0.1,1.4,0.3,2,0.5c0.7,0.3,1.3,0.4,2,0.5c0.7,0,1.3,0.4,2,0.5c0.8,0.1,1.4-0.5,2.1-0.6
			c0.8-0.1,1.6-0.1,2.4-0.2c0.8-0.1,1.5-0.3,2.3-0.5c0.7-0.3,1.4-0.3,2.1-0.6c0.7-0.3,1.3-0.6,1.9-1c0.6-0.4,0.7-1.1,1.3-1.5
			c0.6-0.4,1.1-0.8,1.6-1.3c0.4-0.6,0.7-1.3,0.8-2c0.3-0.6,0.7-1.2,1.1-1.7c0.3-0.7,0.6-1.4,0.7-2.1c0.3-0.7,0.3-1.4,0.3-2.2
			c-0.1-0.4-0.5-0.6-0.3-1.1C52.7,40.1,52.8,39.8,52.9,39.5z"/>
	</g>
</g>
<g class="st0">
	<circle class="st16" cx="40" cy="40" r="24.2"/>
	<path class="st17" d="M70.3,40c0-6.1-1.9-12.1-5.3-17.2v-7.4c0-0.2-0.2-0.4-0.4-0.4h-7.4c-10.3-7.1-23.9-7.1-34.2,0h-7.4
		c-0.1,0-0.2,0-0.3,0.1c-0.1,0.1-0.1,0.2-0.1,0.3v7.3c-7.2,10.4-7.2,24.1,0,34.5v7.3c0,0.2,0.2,0.4,0.4,0.4h7.4
		c10.4,7.1,24,7,34.4-0.1h7.3c0.2,0,0.4-0.2,0.4-0.5v0v-7.3C68.5,52.1,70.3,46.1,70.3,40z M13.8,40c0-14.5,11.7-26.2,26.2-26.2
		S66.2,25.5,66.2,40S54.5,66.2,40,66.2l0,0l0,0C25.5,66.2,13.8,54.5,13.8,40z"/>
	<path class="st17" d="M22.6,25.8h9.9c-0.2,1.1-0.3,2.2-0.3,3.4c0.4,4.4,3.3,16.6,3.3,16.6l4.7-19l4.8,18.6c0,0,2.9-16.4,2.9-17.5
		c-0.1-0.8-0.5-1.6-1.2-2.1h10.5c-1.4,1.3-2.4,2.9-3,4.8c-0.9,3.6-4.1,21.8-4.1,22.9c0.1,1.2,0.5,2.3,1.2,3.3h-9.8
		c0.2-0.9,0.3-1.8,0.3-2.7c0-1.7-1.5-9.6-1.5-9.6s-2,8.2-2,9.7c0,0.9,0.2,1.8,0.6,2.6H29c0,0,1.9-1.4,1.9-2.7
		c-0.2-3.7-5.4-23-5.8-24.5C24.8,28.1,23.9,26.7,22.6,25.8z"/>
</g>
<g class="st0">
	<path class="st18" d="M40.3,9.2h-0.6c0,0-0.1,0-0.1,0c-6.4,0-12.7,2.1-17.9,6l6,6.7c3.3-2.2,6.8-3.7,12-3.8c5.5,0,9.2,1.6,12.6,3.8
		l6-6.7C53.2,11.3,46.8,9.1,40.3,9.2z"/>
	<path class="st19" d="M61.3,17.6l-5.9,6.6l0.2,0.2c7,7,8.5,17.9,3.6,26.5L47.4,39.6l-5.6-13v19.8l11.5,11.1l0,0
		c-0.6,0.4-1.2,0.9-1.8,1.2L51.1,59c-3.3,1.9-7,2.9-10.8,2.9c0,0,0,0,0,0h-0.6c-3.8,0-7.5-1-10.8-2.9l-0.4-0.2
		c-0.6-0.4-1.2-0.8-1.8-1.2L38,46.4V26.6l-5.6,13L20.8,50.9c-4.9-8.6-3.4-19.5,3.5-26.5l0.3-0.3l-5.9-6.6l-0.7,0.7
		c-11.9,12-11.8,31.6,0,43.5l0.4,0.4c2.8,2.7,5.9,4.8,9.5,6.3l0.8,0.3L29,69l0.8,0.3c1,0.4,2.1,0.7,3.2,0.9l2,0.4l2.1,0.3l0.4,0
		l0.8,0H40l0.7-0.1l1.1,0l0.7,0h0.5l2.1-0.3l2-0.4c1.1-0.2,2.2-0.6,3.2-0.9l0.6-0.2l1.1-0.5l0.1-0.1c3.4-1.4,6.6-3.5,9.3-6.1
		l1.2-1.2C74,48.8,73.5,29.3,61.3,17.6z"/>
</g>
<g class="st0">
	<defs>
		<filter id="Adobe_OpacityMaskFilter_3_" filterUnits="userSpaceOnUse" x="14.8" y="10.2" width="50.4" height="59.5">
			<feFlood  style="flood-color:white;flood-opacity:1" result="back"/>
			<feBlend  in="SourceGraphic" in2="back" mode="normal"/>
		</filter>
	</defs>
	<mask maskUnits="userSpaceOnUse" x="14.8" y="10.2" width="50.4" height="59.5" id="SVGID_3_" class="st4">
		<g style="filter:url(#Adobe_OpacityMaskFilter_3_);">
			<path class="st21" d="M12.3,28.4h18.1l2.4,2.2c0.1,0.1,0.1,0.1,0.2,0.1l0,0c0.1,0,0.2,0,0.2-0.1l6.4-7c0.1-0.1,0.1-0.2,0.1-0.4
				c-0.1-0.1-0.2-0.2-0.3-0.2H15.9c-1-0.1-1.9,0.2-2.7,0.7c-0.7,0.6-1.3,1.6-1.3,3.4V28C11.9,28.1,12.1,28.3,12.3,28.4
				C12.3,28.3,12.3,28.3,12.3,28.4L12.3,28.4L12.3,28.4z M72.4,23.3H46.6l-0.2,0.1l-4.7,4.4c-0.1,0.1-0.1,0.4,0,0.5
				c0.1,0.1,0.2,0.1,0.2,0.1h20.7l1.1,1.5c0.1,0.1,0.3,0.2,0.5,0.1l8.4-6c0.1-0.1,0.2-0.3,0-0.5C72.6,23.3,72.5,23.3,72.4,23.3
				L72.4,23.3L72.4,23.3z M63.8,50.8c-0.7,0.1-1.4,0.2-2.1,0.2c-6.1-0.2-11.1-4.9-11.6-11C50,39.2,50,38.4,50,37.6
				c0-2,0.1-4.1,0.5-6.1c0-0.1,0-0.2-0.1-0.3c-0.1-0.1-0.2-0.1-0.3-0.1h-9.2c-0.1,0-0.3,0.1-0.3,0.2c-0.8,2.3-1.2,4.8-1.2,7.3
				c0,2,0.3,3,1,5.4c1.8,5.5,8.4,10.8,13.7,10.8c8,0,10-2.8,10.1-3.7C64.2,50.9,64.1,50.8,63.8,50.8L63.8,50.8L63.8,50.8L63.8,50.8z
				 M25,31.4l-0.3-0.1H14.3c-0.2,0-0.3,0.2-0.3,0.3c0,0.1,0,0.2,0.1,0.2c0,0,14.1,16.3,14.4,16.7c0,0,0,0.1,0.1,0.1
				c0,0-0.1,0.1-0.1,0.1h-8.3c-1.2,0-2.4-0.4-3.4-1.1c-0.4-0.3-0.7-0.7-1-1.1c-0.1-0.1-0.1-0.1-0.2-0.1c-0.1,0-0.2,0-0.3,0.1
				l-7.8,7.2c-0.1,0.1-0.1,0.4,0,0.5c0.1,0.1,0.1,0.1,0.2,0.1h29.1c1.7,0,2.8-1.8,2.9-3.5c0-0.7-0.2-1.4-0.6-1.9
				C37.8,47.6,25,31.4,25,31.4z"/>
		</g>
	</mask>
	<g class="st22">
		<path class="st23" d="M37.5,14.5l-10.9-4.3h-0.2l-11.3,2.1c-0.2,0-0.3,0.2-0.3,0.4c0,0.1,0.1,0.3,0.2,0.3c1.3,0.6,2.6,1.2,3.9,1.9
			c2.1,1.1,5.9,3.5,6.7,4.9c0,0,0,0,0,0c0.3,0.5,0.4,1.1,0.4,1.7l0.1,36.2c0,0,0.1,4.6,10.8,11.9c0.2,0.1,0.8,0.2,0.9,0
			c0,0,0,0,0-0.1V14.8C37.7,14.7,37.7,14.5,37.5,14.5z"/>
		<path class="st23" d="M42.5,14.5l10.9-4.3h0.2l11.3,2.1c0.2,0,0.3,0.2,0.3,0.4c0,0.1-0.1,0.3-0.2,0.3c-1.3,0.6-2.6,1.2-3.9,1.9
			c-2.1,1.1-5.9,3.5-6.7,4.9c0,0,0,0,0,0C54.1,20.4,54,21,54,21.6l-0.1,36.2c0,0-0.1,4.6-10.8,11.9c-0.2,0.1-0.8,0.2-0.9,0
			c0,0,0,0,0-0.1V14.8C42.3,14.7,42.3,14.5,42.5,14.5z"/>
	</g>
	<path class="st24" d="M12.3,28.4h18.1l2.4,2.2c0.1,0.1,0.1,0.1,0.2,0.1l0,0c0.1,0,0.2,0,0.2-0.1l6.4-7c0.1-0.1,0.1-0.2,0.1-0.4
		c-0.1-0.1-0.2-0.2-0.3-0.2H15.9c-1-0.1-1.9,0.2-2.7,0.7c-0.7,0.6-1.3,1.6-1.3,3.4V28C11.9,28.1,12.1,28.3,12.3,28.4
		C12.3,28.3,12.3,28.3,12.3,28.4L12.3,28.4L12.3,28.4z M72.4,23.3H46.6l-0.2,0.1l-4.7,4.4c-0.1,0.1-0.1,0.4,0,0.5
		c0.1,0.1,0.2,0.1,0.2,0.1h20.7l1.1,1.5c0.1,0.1,0.3,0.2,0.5,0.1l8.4-6c0.1-0.1,0.2-0.3,0-0.5C72.6,23.3,72.5,23.3,72.4,23.3
		L72.4,23.3L72.4,23.3z M63.8,50.8c-0.7,0.1-1.4,0.2-2.1,0.2c-6.1-0.2-11.1-4.9-11.6-11C50,39.2,50,38.4,50,37.6
		c0-2,0.1-4.1,0.5-6.1c0-0.1,0-0.2-0.1-0.3c-0.1-0.1-0.2-0.1-0.3-0.1h-9.2c-0.1,0-0.3,0.1-0.3,0.2c-0.8,2.3-1.2,4.8-1.2,7.3
		c0,2,0.3,3,1,5.4c1.8,5.5,8.4,10.8,13.7,10.8c8,0,10-2.8,10.1-3.7C64.2,50.9,64.1,50.8,63.8,50.8L63.8,50.8L63.8,50.8L63.8,50.8z
		 M25,31.4l-0.3-0.1H14.3c-0.2,0-0.3,0.2-0.3,0.3c0,0.1,0,0.2,0.1,0.2c0,0,14.1,16.3,14.4,16.7c0,0,0,0.1,0.1,0.1
		c0,0-0.1,0.1-0.1,0.1h-8.3c-1.2,0-2.4-0.4-3.4-1.1c-0.4-0.3-0.7-0.7-1-1.1c-0.1-0.1-0.1-0.1-0.2-0.1c-0.1,0-0.2,0-0.3,0.1l-7.8,7.2
		c-0.1,0.1-0.1,0.4,0,0.5c0.1,0.1,0.1,0.1,0.2,0.1h29.1c1.7,0,2.8-1.8,2.9-3.5c0-0.7-0.2-1.4-0.6-1.9C37.8,47.6,25,31.4,25,31.4z"/>
</g>
<g class="st0">
	<path class="st24" d="M12.3,28.8h18.1l2.4,2.2c0.1,0.1,0.1,0.1,0.2,0.1l0,0c0.1,0,0.2,0,0.2-0.1l6.4-7c0.1-0.1,0.1-0.2,0.1-0.4
		c-0.1-0.1-0.2-0.2-0.3-0.2H15.9c-1-0.1-1.9,0.2-2.7,0.7c-0.7,0.6-1.3,1.6-1.3,3.4v0.8C11.9,28.6,12.1,28.8,12.3,28.8
		C12.3,28.8,12.3,28.8,12.3,28.8L12.3,28.8L12.3,28.8z M72.4,23.7H46.6l-0.2,0.1l-4.7,4.4c-0.1,0.1-0.1,0.4,0,0.5
		c0.1,0.1,0.2,0.1,0.2,0.1h20.7l1.1,1.5c0.1,0.1,0.3,0.2,0.5,0.1l8.4-6c0.1-0.1,0.2-0.3,0-0.5C72.6,23.8,72.5,23.7,72.4,23.7
		L72.4,23.7L72.4,23.7z M63.8,51.2c-0.7,0.1-1.4,0.2-2.1,0.2c-6.1-0.2-11.1-4.9-11.6-11C50,39.6,50,38.9,50,38.1
		c0-2,0.1-4.1,0.5-6.1c0-0.1,0-0.2-0.1-0.3c-0.1-0.1-0.2-0.1-0.3-0.1h-9.2c-0.1,0-0.3,0.1-0.3,0.2c-0.8,2.3-1.2,4.8-1.2,7.3
		c0,2,0.3,3,1,5.4c1.8,5.5,8.4,10.8,13.7,10.8c8,0,10-2.8,10.1-3.7C64.2,51.4,64.1,51.2,63.8,51.2L63.8,51.2L63.8,51.2L63.8,51.2z
		 M25,31.9l-0.3-0.1H14.3c-0.2,0-0.3,0.2-0.3,0.3c0,0.1,0,0.2,0.1,0.2c0,0,14.1,16.3,14.4,16.7c0,0,0,0.1,0.1,0.1
		c0,0-0.1,0.1-0.1,0.1h-8.3c-1.2,0-2.4-0.4-3.4-1.1c-0.4-0.3-0.7-0.7-1-1.1C15.6,47,15.6,47,15.5,47c-0.1,0-0.2,0-0.3,0.1l-7.8,7.2
		c-0.1,0.1-0.1,0.4,0,0.5c0.1,0.1,0.1,0.1,0.2,0.1h29.1c1.7,0,2.8-1.8,2.9-3.5c0-0.7-0.2-1.4-0.6-1.9C37.8,48,25,31.9,25,31.9z"/>
</g>
<g class="st0">
	<path class="st25" d="M34,30.8c-0.5,0.3-0.8,0.8-0.8,1.9v20.5c0,0.8,0.2,1.5,0.6,2c0.3,0.4,0.8,0.7,1.6,0.7h5.5c2.6,0,5-1.2,7-3.6
		c2.1-2.6,2.6-7,2.6-9.8c0-3.3-0.4-6.2-2.7-8.8c-2-2.3-4.3-3.1-7.6-3.2h-4C35.2,30.5,34.5,30.5,34,30.8L34,30.8z M22.6,25.6h18.8
		c6.7,0,11,2.5,13.7,5.9c2.6,3.3,3.6,7.4,3.6,10.7c0,5.7-1.9,10.4-5,13.6c-3.2,3.2-7.7,4.9-12.9,4.9H30.3c-1.5,0-2.8-0.1-5.2-0.1
		c-1.2,0.1-1.7,0.1-2.4,0.5c0,0-2.2,1.5-2.2,1.3c0.3-1,0.9-2.3,1.6-3c1-1,1.3-1.2,2-1.8c1.2-1.1,1.3-2,1.3-4.5V30.6
		c0-0.8-0.1-1.3-0.2-1.6c-0.4-1.1-0.4-2-3.1-3.2c-0.3-0.1-0.8-0.3-0.8-0.3C21.9,25.5,22.3,25.6,22.6,25.6z"/>
	<path class="st26" d="M37.9,68c-1.2-0.2-6.9-0.7-8.4-5.2c-0.4,0-0.8,0-1.3,0c-0.9,0-1.9,0-3.2,0c-1,0-1.1,0.1-1.3,0.2
		c-0.2,0.1-0.6,0.4-1,0.7c-0.3,0.2-0.6,0.4-0.8,0.5c-0.2,0.1-0.8,0.5-1.5,0.5c-0.4,0-0.8-0.1-1.2-0.4c-0.7-0.5-1-1.4-0.8-2.2
		c0.4-1.4,1.2-2.9,2.1-3.9c0,0,0,0,0,0c0.7-0.7,1.1-1.1,1.5-1.5c0.1-0.1,0.3-0.3,0.5-0.4c0,0,0,0,0,0c0.5-0.4,0.6-0.5,0.6-3V30.6
		c0-0.5,0-0.8-0.1-1c0-0.1-0.1-0.3-0.1-0.4c-0.1-0.4-0.2-0.5-0.3-0.7c-0.1-0.2-0.5-0.5-1.6-0.9c-0.1,0-0.3-0.1-0.5-0.2
		c-1-0.3-1.6-1.2-1.5-2.3c0.1-1,1-1.8,2-1.8c0.3,0,0.6,0,0.9,0c0.2,0,0.3,0,0.4,0h7.1c0.5-1.5,1.3-3.2,2.8-4.1c3.1-1.7,3-2.6,3-2.6
		S14.7,21,4.3,9.2C7.8,14.6,15,21.4,15,26.6s0,33.8,0,33.8s0.3,7-8.7,7.5c-0.6,0.4-0.3,1-0.1,1c0.6,0,31.6,0,31.6,0
		S38.5,68.6,37.9,68z"/>
	<path class="st26" d="M73.7,67.9c-9-0.5-8.7-7.5-8.7-7.5s0-28.5,0-33.8s7.2-12,10.8-17.5C65.3,21,44.6,16.9,44.6,16.9
		s-0.1,0.9,3,2.6c2.2,1.2,2.9,4.1,3.2,5.8c3,1.3,5.1,3.2,6.4,4.9c0,0,0,0,0,0c2.6,3.3,4.1,7.7,4.1,12c0,6.1-1.9,11.3-5.6,15.1
		c0,0,0,0,0,0c-1.4,1.4-3,2.5-4.8,3.4c-0.2,6.5-7.4,7.1-8.8,7.3c-0.6,0.6,0,0.8,0,0.8s31.1,0,31.6,0C74,68.8,74.3,68.3,73.7,67.9z"
		/>
</g>
<g>
	<path class="st27" d="M73.5,25.6c0.7-1.1,0-3,0.1-4.3c0.2-1.3,2.4-4.5,2.2-5.8c-1.1,0.1-2.9,0.3-4.8,0c-2-0.2-7,0.7-8.8,1.5
		c-1.8,0.8,0.4-0.7-1-1.3c-1.4-0.5-7.1,1.8-7.1,1.8l-5.5-0.4L40,18l0,0v0l0,0l0,0v0l0,0l-8.7-0.8l-5.5,0.4c0,0-5.7-2.4-7.1-1.8
		c-1.4,0.5,0.9,2-1,1.3c-1.8-0.8-6.8-1.7-8.8-1.5c-2,0.2-3.7,0.1-4.8,0c-0.2,1.2,2.1,4.5,2.2,5.8c0.2,1.3-0.6,3.2,0.1,4.3
		c0.7,1.1-0.5,1.7-0.5,3c0,1.3,2.7,3.2,2.4,4.3c-0.3,1-0.4,3.3,0,5.2c0.4,1.9,1.4,5.3,1.1,6.9c-0.3,1.5-1.3,4.6-1.1,5.3
		c0.2,0.7,0.3,1.3,0.3,2.3c0,0.9,1,3.5,0.8,4.7c-0.2,1.2,0.3,3.2,0.1,3.8c-0.2,0.6-1.4,3.4-0.3,3.1c1-0.3,7.4-0.5,9.5-0.5
		c1,0,5.5,0.5,10.5,0.5c2.8,0,2.4-0.1,4.9-0.4c0.9,0.4,5,0.4,5.4,0.3c0.1,0,0.3-0.1,0.5-0.1c0.2,0,0.3,0.1,0.5,0.1
		c0.4,0.1,4.4,0.1,5.4-0.3c2.5,0.3,2.1,0.4,4.9,0.4c5,0.1,9.5-0.5,10.5-0.5c2.2,0,8.5,0.1,9.5,0.5c1,0.3-0.2-2.4-0.3-3.1
		c-0.2-0.6,0.4-2.6,0.1-3.8c-0.2-1.2,0.8-3.8,0.8-4.7c0-0.9,0.1-1.6,0.3-2.3c0.2-0.7-0.9-3.8-1.1-5.3c-0.3-1.5,0.7-4.9,1.1-6.9
		c0.4-1.9,0.3-4.2,0-5.2c-0.3-1,2.4-3,2.4-4.3C74.1,27.3,72.8,26.7,73.5,25.6z"/>
	<path class="st28" d="M19,21.5h12c-0.3,1.3-0.4,2.7-0.4,4.1c0.5,5.3,4,20,4,20l5.7-22.9L46,45.1c0,0,3.5-19.7,3.5-21
		c-0.1-1-0.6-1.9-1.4-2.5h12.6c-1.7,1.6-2.9,3.5-3.6,5.7c-1.1,4.3-5,26.2-5,27.6c0.1,1.4,0.6,2.8,1.5,3.9H41.9
		c0.3-1,0.4-2.1,0.4-3.2c0-2-1.9-11.5-1.9-11.5S38,53.9,38,55.7c0,1.1,0.3,2.1,0.8,3.1H26.6c0,0,2.3-1.6,2.2-3.2
		c-0.3-4.5-6.5-27.7-7-29.5C21.5,24.3,20.5,22.6,19,21.5z"/>
	<g>
		<path class="st29" d="M23.5,64.6c0-0.4,0-11,0-17.6h0c0,0,0-2.4,0-6c-1.1-4.5-2.3-8.9-2.9-11.5c-0.4-1.7-0.7-2.7-0.8-3
			c0,0,0-0.1,0-0.1c-0.2-1.3-1-2.4-2-3.2c-0.8-0.5-1.1-1.5-0.8-2.4c0.3-0.9,1.1-1.5,2.1-1.5h4.5c0-2.3,0-3.8,0-4
			c0-0.9,2.2-3,3.1-3.6v-0.6h-0.2h-7.6h-0.1h-0.4h-0.4h-0.1h-7.6H10v0.6c0.8,0.6,3.1,2.7,3.1,3.6c0,0.4,0,6.4,0,13h0
			c0,0,0,35.3,0,36.3c0,0.9-2.2,3-3.1,3.6v0.6h0.2h7.6h0.1h0.4h0.4h0.1h7.6h0.2v-0.6C25.7,67.6,23.5,65.5,23.5,64.6z"/>
		<g>
			<path class="st29" d="M45,64.6c0-0.2,0-1.6,0-3.6h-3.1c-0.6,0-1.1-0.8-1.5-1.2c-0.4,0.4-1,1.2-1.5,1.2h-4.1c0,2.1,0,3.4,0,3.6
				c0,0.9-2.2,3-3.1,3.6v0.6h0.2h7.6h0.1h0.4h0.4h0.1h7.6h0.2v-0.6C47.3,67.6,45,65.5,45,64.6z"/>
			<path class="st29" d="M34.6,15.3c0,0.4,0,6.4,0,13h0c0,0,0,3.2,0,7.7l3.4-13.9c0.2-1,1.1-1.6,2.1-1.6c0,0,0,0,0,0
				c1,0,1.8,0.7,2.1,1.6l3.4,13.9c0-8.1-0.7-20.2-0.7-20.7c0-0.9,2.2-3,3.1-3.6v-0.6h-0.2h-7.6h-0.1h-0.4h-0.4h-0.1h-7.6h-0.2v0.6
				C32.4,12.4,34.6,14.5,34.6,15.3z"/>
		</g>
		<path class="st29" d="M66.5,47c0,0,0-30.7,0-31.7c0-0.9,2.2-3,3.1-3.6v-0.6h-0.2h-7.6h-0.1h-0.4H61h-0.1h-7.6h-0.2v0.6
			c0.8,0.6,3.1,2.7,3.1,3.6c0,0.2,0,1.7,0,4h4.5c0.9,0,1.7,0.5,2,1.4c0.3,0.8,0.1,1.8-0.5,2.4c-1.4,1.3-2.4,2.9-2.9,4.7
			c-0.6,2.4-1.9,9.3-3,15.6c0,9.7,0,20.6,0,21.2c0,0.9-2.2,3-3.1,3.6v0.6h0.2h7.6H61h0.4h0.4h0.1h7.6h0.2v-0.6
			c-0.8-0.6-3.1-2.7-3.1-3.6C66.5,64.2,66.5,53.6,66.5,47L66.5,47z"/>
	</g>
</g>
</svg>
