<?xml version="1.0" encoding="utf-8"?>
<!-- Generator: Adobe Illustrator 18.0.0, SVG Export Plug-In . SVG Version: 6.00 Build 0)  -->
<!DOCTYPE svg PUBLIC "-//W3C//DTD SVG 1.1//EN" "http://www.w3.org/Graphics/SVG/1.1/DTD/svg11.dtd">
<svg version="1.1" id="Layer_1" xmlns="http://www.w3.org/2000/svg" xmlns:xlink="http://www.w3.org/1999/xlink" x="0px" y="0px"
	 viewBox="0 0 1000 1000" enable-background="new 0 0 1000 1000" xml:space="preserve">
<g>
	<path fill="#FFFFFF" d="M498.6,146.5c193.8,0,351.5,157.7,351.5,351.5S692.5,849.6,498.6,849.6c-193.8,0-351.5-157.7-351.5-351.5
		S304.8,146.5,498.6,146.5 M498.6,72.5C263.6,72.5,73.1,263,73.1,498c0,235,190.5,425.5,425.5,425.5c235,0,425.5-190.5,425.5-425.5
		C924.2,263,733.7,72.5,498.6,72.5L498.6,72.5z"/>
	<path fill="#FFFFFF" d="M667.5,535H329.7c-20.4,0-37-16.6-37-37s16.6-37,37-37h337.8c20.4,0,37,16.6,37,37S688,535,667.5,535z"/>
	<path fill="#FFFFFF" d="M498.6,703.9L498.6,703.9c-20.4,0-37-16.6-37-37l0-337.8c0-20.4,16.6-37,37-37l0,0c20.4,0,37,16.6,37,37
		l0,337.8C535.6,687.4,519.1,703.9,498.6,703.9z"/>
</g>
</svg>
