<?xml version="1.0" encoding="utf-8"?>
<!-- Generator: Adobe Illustrator 18.0.0, SVG Export Plug-In . SVG Version: 6.00 Build 0)  -->
<!DOCTYPE svg PUBLIC "-//W3C//DTD SVG 1.1//EN" "http://www.w3.org/Graphics/SVG/1.1/DTD/svg11.dtd">
<svg version="1.1" id="Layer_1" xmlns="http://www.w3.org/2000/svg" xmlns:xlink="http://www.w3.org/1999/xlink" x="0px" y="0px"
	 viewBox="0 0 1000 1000" enable-background="new 0 0 1000 1000" xml:space="preserve">
<g>
	<path fill="#FFFFFF" d="M814.1,803.4H178c-58.6,0-106.3-49.4-106.3-110.2V313.5c-2.4-28.4,6.7-55.5,25.7-76.8
		C117.7,214,147,201,178,201h636.1c60.8,0,110.2,49.4,110.2,110.2v382C924.3,754,874.9,803.4,814.1,803.4z M178,295.6
		c-5.8,0-8.9,2.8-10,4.1c-2.1,2.3-2.1,4.5-1.9,6.2c0.2,1.8,0.3,3.5,0.3,5.3v382c0,6.5,4.1,15.6,11.7,15.6h636.1
		c8.6,0,15.6-7,15.6-15.6v-382c0-8.6-7-15.6-15.6-15.6H178z"/>
	<rect x="134.5" y="416.1" fill="#FFFFFF" width="769.6" height="94.6"/>
</g>
</svg>
