<?xml version="1.0" encoding="utf-8"?>
<!-- Generator: Adobe Illustrator 18.0.0, SVG Export Plug-In . SVG Version: 6.00 Build 0)  -->
<!DOCTYPE svg PUBLIC "-//W3C//DTD SVG 1.1//EN" "http://www.w3.org/Graphics/SVG/1.1/DTD/svg11.dtd">
<svg version="1.1" id="Layer_1" xmlns="http://www.w3.org/2000/svg" xmlns:xlink="http://www.w3.org/1999/xlink" x="0px" y="0px"
	 viewBox="0 0 1000 1000" enable-background="new 0 0 1000 1000" xml:space="preserve">
<g>
	<path d="M-1193.9,867.4H-1830c-58.6,0-106.3-49.4-106.3-110.2V377.5c-2.4-28.4,6.7-55.5,25.7-76.8c20.2-22.7,49.6-35.7,80.6-35.7
		h636.1c60.8,0,110.2,49.4,110.2,110.2v382C-1083.7,818-1133.1,867.4-1193.9,867.4z M-1830,359.6c-5.8,0-8.9,2.8-10,4.1
		c-2.1,2.3-2.1,4.5-1.9,6.2c0.2,1.8,0.3,3.5,0.3,5.3v382c0,6.5,4.1,15.6,11.7,15.6h636.1c8.6,0,15.6-7,15.6-15.6v-382
		c0-8.6-7-15.6-15.6-15.6H-1830z"/>
	<rect x="-1873.5" y="480.1" width="769.6" height="94.6"/>
</g>
<g>
	<path d="M-2524.3,148.5c193.8,0,351.5,157.7,351.5,351.5s-157.6,351.6-351.5,351.6c-193.8,0-351.5-157.7-351.5-351.5
		S-2718.1,148.5-2524.3,148.5 M-2524.3,74.5c-235,0-425.5,190.5-425.5,425.5s190.5,425.5,425.5,425.5S-2098.8,735-2098.8,500
		C-2098.7,265-2289.2,74.5-2524.3,74.5L-2524.3,74.5z"/>
	<path d="M-2355.4,537h-337.8c-20.4,0-37-16.6-37-37s16.6-37,37-37h337.8c20.4,0,37,16.6,37,37C-2318.4,520.4-2334.9,537-2355.4,537
		z"/>
	<path d="M-2524.3,705.9L-2524.3,705.9c-20.4,0-37-16.6-37-37V331.1c0-20.4,16.6-37,37-37l0,0c20.4,0,37,16.6,37,37v337.8
		C-2487.3,689.4-2503.8,705.9-2524.3,705.9z"/>
</g>
<rect x="72.8" y="704.6" fill="#FFFFFF" width="670.6" height="98.5"/>
<rect x="72.8" y="197.9" fill="#FFFFFF" width="853.4" height="98.5"/>
<rect x="72.8" y="366.8" fill="#FFFFFF" width="853.4" height="98.5"/>
<rect x="72.8" y="535.7" fill="#FFFFFF" width="853.4" height="98.5"/>
</svg>
