<?xml version="1.0" encoding="utf-8"?>
<!-- Generator: Adobe Illustrator 18.0.0, SVG Export Plug-In . SVG Version: 6.00 Build 0)  -->
<!DOCTYPE svg PUBLIC "-//W3C//DTD SVG 1.1//EN" "http://www.w3.org/Graphics/SVG/1.1/DTD/svg11.dtd">
<svg version="1.1" id="Layer_1" xmlns="http://www.w3.org/2000/svg" xmlns:xlink="http://www.w3.org/1999/xlink" x="0px" y="0px"
	 viewBox="0 0 1000 1000" enable-background="new 0 0 1000 1000" xml:space="preserve">
<g>
	<path d="M-1193.9,867.4H-1830c-58.6,0-106.3-49.4-106.3-110.2V377.5c-2.4-28.4,6.7-55.5,25.7-76.8c20.2-22.7,49.6-35.7,80.6-35.7
		h636.1c60.8,0,110.2,49.4,110.2,110.2v382C-1083.7,818-1133.1,867.4-1193.9,867.4z M-1830,359.6c-5.8,0-8.9,2.8-10,4.1
		c-2.1,2.3-2.1,4.5-1.9,6.2c0.2,1.8,0.3,3.5,0.3,5.3v382c0,6.5,4.1,15.6,11.7,15.6h636.1c8.6,0,15.6-7,15.6-15.6v-382
		c0-8.6-7-15.6-15.6-15.6H-1830z"/>
	<rect x="-1873.5" y="480.1" width="769.6" height="94.6"/>
</g>
<g>
	<path d="M-2524.3,148.5c193.8,0,351.5,157.7,351.5,351.5s-157.6,351.6-351.5,351.6c-193.8,0-351.5-157.7-351.5-351.5
		S-2718.1,148.5-2524.3,148.5 M-2524.3,74.5c-235,0-425.5,190.5-425.5,425.5s190.5,425.5,425.5,425.5S-2098.8,735-2098.8,500
		C-2098.7,265-2289.2,74.5-2524.3,74.5L-2524.3,74.5z"/>
	<path d="M-2355.4,537h-337.8c-20.4,0-37-16.6-37-37s16.6-37,37-37h337.8c20.4,0,37,16.6,37,37C-2318.4,520.4-2334.9,537-2355.4,537
		z"/>
	<path d="M-2524.3,705.9L-2524.3,705.9c-20.4,0-37-16.6-37-37V331.1c0-20.4,16.6-37,37-37l0,0c20.4,0,37,16.6,37,37v337.8
		C-2487.3,689.4-2503.8,705.9-2524.3,705.9z"/>
</g>
<rect x="-3893.6" y="731.5" width="670.6" height="98.5"/>
<rect x="-3893.6" y="224.8" width="853.4" height="98.5"/>
<rect x="-3893.6" y="393.7" width="853.4" height="98.5"/>
<rect x="-3893.6" y="562.6" width="853.4" height="98.5"/>
<path fill="#FFFFFF" d="M499.4,147.2c193.9,0,351.7,157.8,351.7,351.7S693.3,850.6,499.4,850.6S147.7,692.8,147.7,498.9
	S305.4,147.2,499.4,147.2 M499.4,73.1c-235.1,0-425.8,190.6-425.8,425.8s190.6,425.8,425.8,425.8S925.1,734,925.1,498.9
	S734.5,73.1,499.4,73.1L499.4,73.1z"/>
<path fill="#FFFFFF" d="M447.8,569v-5.3c0-67.3,18.3-82.7,112.2-93.9c48.4-5.9,65.6-19.5,65.6-52.6c0-20.1-6.5-34.3-18.9-41.3
	c-13.6-7.7-43.1-11.2-94.5-11.2c-105.7,0-117.5,6.5-117.5,63.8v11.8h-78.6v-10c0-57.3,5.9-78.6,27.8-98
	c22.5-20.7,63.2-27.2,166.6-27.2c107.5,0,147.1,8.3,171.9,34.8c14.8,16,20.7,39,20.7,79.8c0,46.1-9.4,72.1-31.3,88
	c-16,10.6-51.4,20.1-98.7,26c-39.6,5.3-47.2,11.2-47.2,35.4H447.8z M529.9,712.2h-85.5v-85.5h85.5V712.2z"/>
</svg>
