<?xml version="1.0" encoding="utf-8"?>
<!-- Generator: Adobe Illustrator 18.0.0, SVG Export Plug-In . SVG Version: 6.00 Build 0)  -->
<!DOCTYPE svg PUBLIC "-//W3C//DTD SVG 1.1//EN" "http://www.w3.org/Graphics/SVG/1.1/DTD/svg11.dtd">
<svg version="1.1" id="Layer_1" xmlns="http://www.w3.org/2000/svg" xmlns:xlink="http://www.w3.org/1999/xlink" x="0px" y="0px"
	 viewBox="0 0 1000 1000" enable-background="new 0 0 1000 1000" xml:space="preserve">
<g>
	<path d="M-1193.9,818.4H-1830c-58.6,0-106.3-49.4-106.3-110.2V328.5c-2.4-28.4,6.7-55.5,25.7-76.8c20.2-22.7,49.6-35.7,80.6-35.7
		h636.1c60.8,0,110.2,49.4,110.2,110.2v382C-1083.7,769-1133.1,818.4-1193.9,818.4z M-1830,310.6c-5.8,0-8.9,2.8-10,4.1
		c-2.1,2.3-2.1,4.5-1.9,6.2c0.2,1.8,0.3,3.5,0.3,5.3v382c0,6.5,4.1,15.6,11.7,15.6h636.1c8.6,0,15.6-7,15.6-15.6v-382
		c0-8.6-7-15.6-15.6-15.6H-1830z"/>
	<rect x="-1873.5" y="431.1" width="769.6" height="94.6"/>
</g>
<g>
	<path d="M-2524.3,148.5c193.8,0,351.5,157.7,351.5,351.5s-157.6,351.6-351.5,351.6c-193.8,0-351.5-157.7-351.5-351.5
		S-2718.1,148.5-2524.3,148.5 M-2524.3,74.5c-235,0-425.5,190.5-425.5,425.5s190.5,425.5,425.5,425.5S-2098.8,735-2098.8,500
		C-2098.7,265-2289.2,74.5-2524.3,74.5L-2524.3,74.5z"/>
	<path d="M-2355.4,537h-337.8c-20.4,0-37-16.6-37-37s16.6-37,37-37h337.8c20.4,0,37,16.6,37,37C-2318.4,520.4-2334.9,537-2355.4,537
		z"/>
	<path d="M-2524.3,705.9L-2524.3,705.9c-20.4,0-37-16.6-37-37V331.1c0-20.4,16.6-37,37-37l0,0c20.4,0,37,16.6,37,37v337.8
		C-2487.3,689.4-2503.8,705.9-2524.3,705.9z"/>
</g>
<rect x="-3893.6" y="731.5" width="670.6" height="98.5"/>
<rect x="-3893.6" y="224.8" width="853.4" height="98.5"/>
<rect x="-3893.6" y="393.7" width="853.4" height="98.5"/>
<rect x="-3893.6" y="562.6" width="853.4" height="98.5"/>
<path d="M-4492.6,147.2c193.9,0,351.7,157.8,351.7,351.7s-157.8,351.7-351.7,351.7c-193.9,0-351.7-157.8-351.7-351.7
	S-4686.6,147.2-4492.6,147.2 M-4492.6,73.1c-235.1,0-425.8,190.6-425.8,425.8s190.6,425.8,425.8,425.8
	c235.1,0,425.8-190.6,425.8-425.8S-4257.5,73.1-4492.6,73.1L-4492.6,73.1z"/>
<path d="M-4544.2,569v-5.3c0-67.3,18.3-82.7,112.2-93.9c48.4-5.9,65.6-19.5,65.6-52.6c0-20.1-6.5-34.3-18.9-41.3
	c-13.6-7.7-43.1-11.2-94.5-11.2c-105.7,0-117.5,6.5-117.5,63.8v11.8h-78.6v-10c0-57.3,5.9-78.6,27.8-98
	c22.5-20.7,63.2-27.2,166.6-27.2c107.5,0,147.1,8.3,171.9,34.8c14.8,16,20.7,39,20.7,79.8c0,46.1-9.4,72.1-31.3,88
	c-16,10.6-51.4,20.1-98.7,26c-39.6,5.3-47.2,11.2-47.2,35.4H-4544.2z M-4462.1,712.2h-85.5v-85.5h85.5V712.2z"/>
<path d="M-5467.7,919c-26.7,0-51.8-10.4-70.7-29.3l-415.5-415.5c-6.6-6.6-10.3-15.5-10.3-24.7V178.8c0-55.1,44.8-100,100-100h281.4
	c9.3,0,18.2,3.7,24.7,10.3l415.5,415.5c18.9,18.9,29.3,44,29.3,70.7c0,26.7-10.4,51.8-29.3,70.7c-0.2,0.2-0.4,0.4-0.5,0.5
	L-5397.3,890C-5416.1,908.7-5441.1,919-5467.7,919z M-5894.1,435l405.3,405.3c5.7,5.7,13.2,8.8,21.2,8.8c8,0,15.5-3.1,21.2-8.8
	c0.2-0.2,0.4-0.4,0.5-0.5l254.2-243.4c5.5-5.6,8.6-13.1,8.6-20.9c0-8-3.1-15.5-8.8-21.2l-405.3-405.3h-267c-16.5,0-30,13.4-30,30
	V435z"/>
<path d="M-5658.5,319.6c0,35.9-29.1,64.9-64.9,64.9s-65-29.1-65-64.9s29.1-64.9,65-64.9S-5658.5,283.7-5658.5,319.6z"/>
<g>
	<path d="M-6431.5,904.9l-263.9-51c-42-8.1-69.5-48.9-61.4-90.9l119.7-619.3c7.8-40.5,48.4-66.8,90.3-58.7l262.4,50.7
		c43.3,4.7,71.8,45.8,63.5,88.4l-119.7,619.3C-6348.8,885.4-6389.6,913-6431.5,904.9z M-6559.6,150.4c-4.5-0.9-11.3,0.7-12.3,6
		l-119.7,619.3c-1.1,5.9,2.8,11.7,8.7,12.8l263.9,51c5.9,1.1,11.7-2.7,12.9-8.7l119.7-619.3c0.9-4.6-1.2-8.9-4.7-9.5
		c-1.2-0.1-3.3-0.4-4.5-0.6L-6559.6,150.4z"/>
	<path d="M-6682.2,814.6l-96.6,30.8c-5.8,1.8-11.9-1.4-13.8-7.1l-191.3-601c-1.6-5.1,3.6-9.7,8-11.1l256.2-81.5
		c1.2-0.4,3.1-1.1,4.3-1.6c3.4-1.1,7.3,1.7,8.7,6.1l56.5,177.5l4.8-40l51.5-2.8l-49.3-154.9c-13.2-41.4-57.9-63.8-98.1-47.3
		l-254.6,81c-40.7,13-63.7,55.5-51.2,94.8l191.3,601c13,40.7,56.7,63.3,97.4,50.4l205.2-65.3L-6682.2,814.6z"/>
</g>
<path fill="#FFFFFF" d="M722.5,886H280c-19.3,0-35-15.7-35-35V456.4h-73.8c-15.5,0-29.2-10.2-33.6-25.1L76.7,224.7
	c-5.5-18.6,5.1-38,23.7-43.5c7.2-2.1,176.6-52,230.3-65c10.4-2.5,21.5-0.1,29.9,6.5c8.4,6.6,13.4,16.8,13.4,27.5
	c0,47.2,93.3,69,127.1,75.2c11.4-2.1,40.4-4.6,68.6-16.8c26.8-11.6,58.8-31.1,58.8-58.4c0-10.7,4.9-20.9,13.4-27.5
	c8.4-6.6,19.5-9,29.9-6.5c53.7,13,223.2,62.9,230.3,65c18.6,5.5,29.2,24.9,23.7,43.5l-60.9,206.5c-4.4,14.9-18.1,25.1-33.6,25.1
	h-73.8V851C757.6,870.3,741.9,886,722.5,886z M315,816h372.5V421.3c0-19.3,15.7-35,35-35h82.6l43.5-147.7
	c-41.3-12.1-111.8-32.5-159.1-45.3c-12.2,27.7-38.9,57-93.5,80.3c-44.2,18.8-87.9,21-89.8,21.3c-3.4,0.5-6.8,0.5-10.2,0
	c-1.8-0.3-45.5-2.5-89.8-21.3c-54.5-23.2-81.3-52.6-93.5-80.3c-47.3,12.8-117.7,33.2-159.1,45.3l43.5,147.7H280
	c19.3,0,35,15.7,35,35V816z"/>
</svg>
