<?xml version="1.0" encoding="utf-8"?>
<!-- Generator: Adobe Illustrator 18.0.0, SVG Export Plug-In . SVG Version: 6.00 Build 0)  -->
<!DOCTYPE svg PUBLIC "-//W3C//DTD SVG 1.1//EN" "http://www.w3.org/Graphics/SVG/1.1/DTD/svg11.dtd">
<svg version="1.1" id="Layer_1" xmlns="http://www.w3.org/2000/svg" xmlns:xlink="http://www.w3.org/1999/xlink" x="0px" y="0px"
	 viewBox="0 0 1000 1000" enable-background="new 0 0 1000 1000" xml:space="preserve">
<path fill="#FFFFFF" d="M637,714.5c-196.8,0-356.8-160.1-356.8-356.8C280.2,160.9,440.2,0.9,637,0.9
	c196.7,0,356.8,160.1,356.8,356.8C993.8,554.4,833.7,714.5,637,714.5z M637,88.1c-148.7,0-269.6,121-269.6,269.6
	c0,148.7,121,269.6,269.6,269.6s269.6-121,269.6-269.6C906.6,209,785.6,88.1,637,88.1z"/>
<path fill="#FFFFFF" d="M49,999.3c-11.2,0-22.3-4.3-30.8-12.8c-17-17-17-44.6,0-61.6l338.2-338.2c17-17,44.6-17,61.7,0
	c17,17,17,44.6,0,61.6L79.8,986.5C71.3,995,60.1,999.3,49,999.3z"/>
</svg>
