<?xml version="1.0" encoding="utf-8"?>
<!-- Generator: Adobe Illustrator 21.1.0, SVG Export Plug-In . SVG Version: 6.00 Build 0)  -->
<!DOCTYPE svg PUBLIC "-//W3C//DTD SVG 1.1//EN" "http://www.w3.org/Graphics/SVG/1.1/DTD/svg11.dtd">
<svg version="1.1" id="Layer_1" xmlns="http://www.w3.org/2000/svg" xmlns:xlink="http://www.w3.org/1999/xlink" x="0px" y="0px"
	 viewBox="0 0 80 80" style="enable-background:new 0 0 80 80;" xml:space="preserve">
<style type="text/css">
	.st0{fill:#FFFFFF;}
</style>
<path class="st0" d="M47.9,40.1l13.9-14c2.2-2.2,2.2-5.7,0-7.9s-5.7-2.2-7.9,0l-14,14l-14-14c-2.1-2.2-5.7-2.2-7.9,0
	c-2.2,2.1-2.2,5.7,0,7.9l14,14l-14,14c-2.2,2.2-2.2,5.7,0,7.9c1.1,1.1,2.6,1.6,4,1.6c1.5,0,2.9-0.6,4-1.6L40,48l13.9,13.9
	c1.1,1.1,2.6,1.6,4,1.6c1.4,0,2.9-0.6,3.9-1.6c2.2-2.1,2.2-5.7,0-7.9L47.9,40.1z"/>
</svg>
